<?xml version="1.0" encoding="utf-8"?>
<!-- Generator: Adobe Illustrator 26.0.0, SVG Export Plug-In . SVG Version: 6.00 Build 0)  -->
<svg version="1.1" id="Capa_1" xmlns="http://www.w3.org/2000/svg" xmlns:xlink="http://www.w3.org/1999/xlink" x="0px" y="0px"
	 viewBox="0 0 60 60" style="enable-background:new 0 0 60 60;" xml:space="preserve">
<g>
	<path d="M42.22,14.28c0.03-0.05,0.06-0.11,0.09-0.16c0.18-0.42,0.3-0.48,0.75-0.38c0.26,0.06,0.51,0.12,0.76,0.19
		c0.52,0.15,1.02,0.33,1.49,0.59c0.49,0.26,0.92,0.59,1.3,1c0.44,0.49,0.77,1.04,0.92,1.69c0.07,0.29,0.15,0.58,0.24,0.9
		c0.07-0.06,0.11-0.1,0.15-0.13c0.14-0.11,0.29-0.04,0.42,0.02c0.11,0.05,0.15,0.16,0.14,0.28c-0.01,0.2-0.04,0.4-0.04,0.6
		c-0.02,0.65,0.07,1.29,0.17,1.94c0.1,0.67,0.22,1.33,0.3,2c0.09,0.75,0.08,1.49-0.11,2.23c-0.21,0.83-0.61,1.55-1.24,2.14
		c-0.06,0.06-0.12,0.12-0.19,0.18c-0.15,0.11-0.19,0.25-0.15,0.45c0.07,0.04,0.15,0.1,0.23,0.15c1.08,0.62,1.69,1.56,1.8,2.81
		c0.03,0.33,0.03,0.67,0.02,1.01c-0.01,0.31,0.06,0.59,0.26,0.84c0.05,0.07,0.11,0.13,0.16,0.21c0.09,0.14,0.09,0.28-0.01,0.42
		c-0.09,0.14-0.21,0.2-0.35,0.13c-0.32-0.18-0.62-0.1-0.94,0c-0.16,0.05-0.34,0.06-0.51,0.08c-0.12,0.01-0.22,0.04-0.29,0.15
		c-0.04,0.07-0.05,0.14-0.01,0.21c0.04,0.08,0.11,0.09,0.19,0.08c0.09-0.02,0.17-0.05,0.25-0.07c0.37-0.08,0.73-0.17,1.1-0.23
		c0.63-0.11,1.24,0.02,1.83,0.26c0.21,0.09,0.38,0.24,0.53,0.41c0.04,0.04,0.07,0.11,0.09,0.16c0.03,0.1-0.03,0.21-0.13,0.24
		c-0.05,0.01-0.1,0.02-0.15,0.03c-0.82,0.09-1.55,0.44-2.26,0.84c-0.07,0.04-0.13,0.11-0.19,0.17c-0.05,0.06-0.03,0.15,0.03,0.2
		c0.05,0.05,0.12,0.06,0.17,0.02c0.08-0.06,0.15-0.13,0.23-0.19c0.11-0.1,0.24-0.12,0.39-0.11c0.23,0.03,0.34,0.25,0.22,0.44
		c-0.11,0.17-0.25,0.3-0.44,0.39c-0.2,0.09-0.29,0.26-0.25,0.51c0.14-0.02,0.24-0.12,0.36-0.17c0.12-0.05,0.19-0.15,0.23-0.28
		c0.01-0.05,0.07-0.1,0.12-0.13c0.32-0.17,0.45-0.45,0.47-0.8c0.01-0.07,0.01-0.15,0.02-0.22c0.06-0.31,0.27-0.43,0.58-0.35
		c0.04,0.01,0.07,0.02,0.11,0.03c0.12,0.05,0.17,0.16,0.12,0.28c-0.24,0.52-0.4,1.07-0.69,1.57c-0.17,0.3-0.33,0.62-0.48,0.93
		c-0.07,0.14-0.11,0.31-0.12,0.47c-0.02,0.26,0.15,0.4,0.4,0.35c0.07-0.01,0.14-0.04,0.21-0.08c0.07-0.05,0.15-0.1,0.2-0.16
		c0.54-0.6,0.99-1.25,1.18-2.05c0.09-0.35,0.11-0.71,0.11-1.08c0.01-2.07-0.58-3.96-1.8-5.64c-0.28-0.39-0.6-0.73-0.97-1.03
		c-0.38-0.3-0.75-0.62-1.19-0.83c-0.04-0.02-0.08-0.05-0.12-0.09c-0.07-0.08-0.04-0.22,0.06-0.29c0.23-0.15,0.48-0.21,0.75-0.18
		c0.87,0.09,1.6,0.47,2.16,1.14c0.29,0.35,0.45,0.77,0.61,1.19c0.06,0.15,0.11,0.3,0.18,0.45c0.08,0.17,0.21,0.31,0.4,0.38
		c0.04,0.02,0.09,0.01,0.17,0.02c-0.01-0.08,0-0.14-0.02-0.2c-0.14-0.48-0.31-0.95-0.54-1.39c-0.49-0.94-1.23-1.58-2.23-1.95
		c-0.19-0.07-0.36-0.06-0.52,0.07c-0.04,0.03-0.07,0.07-0.11,0.1c-0.07,0.05-0.15,0.1-0.24,0.04c-0.09-0.06-0.15-0.19-0.12-0.29
		c0.03-0.09,0.08-0.19,0.15-0.26c0.33-0.35,0.72-0.62,1.19-0.75c0.76-0.22,1.43-0.03,2.03,0.46c0.3,0.25,0.55,0.55,0.78,0.86
		c0.2,0.27,0.29,0.58,0.21,0.92c-0.04,0.17,0.01,0.29,0.14,0.39c0.36,0.26,0.46,0.64,0.47,1.05c0.01,0.32-0.01,0.65-0.02,0.97
		c0,0.05-0.01,0.1-0.02,0.15c-0.05,0.19-0.16,0.24-0.34,0.14c-0.12-0.07-0.22-0.16-0.33-0.24c-0.1-0.08-0.21-0.13-0.37-0.06
		c0.06,0.08,0.11,0.15,0.16,0.21c0.65,0.66,1.04,1.46,1.2,2.37c0.12,0.66,0.09,1.32,0,1.97c-0.03,0.22-0.06,0.44-0.11,0.66
		c-0.09,0.4-0.33,0.66-0.76,0.7c-0.05,0-0.09,0.03-0.15,0.05c0.02,0.08,0.03,0.15,0.05,0.22c0.13,0.43,0.03,0.81-0.23,1.16
		c-0.17,0.23-0.39,0.42-0.64,0.57c-0.27,0.16-0.54,0.31-0.81,0.47c-0.26,0.15-0.53,0.28-0.78,0.44c-0.19,0.12-0.38,0.25-0.54,0.4
		c-0.71,0.67-1.56,1.03-2.5,1.16c-0.64,0.09-1.29,0.16-1.93,0.22c-0.47,0.04-0.91,0.17-1.29,0.44c-0.41,0.29-0.8,0.6-1.19,0.91
		c-0.15,0.12-0.24,0.29-0.23,0.49c0,0.05-0.01,0.1,0,0.15c0.07,0.52,0.01,1.04,0.01,1.57c0,0.45,0.08,0.87,0.34,1.24
		c0.1,0.15,0.12,0.29,0.02,0.45c-0.09,0.15-0.18,0.3-0.27,0.45c-0.03,0.05-0.07,0.1-0.11,0.15c-0.23,0.36-0.1,0.68,0.31,0.8
		c0.08,0.02,0.17-0.01,0.18-0.08c0.04-0.24,0.2-0.45,0.17-0.72c-0.02-0.23,0.09-0.3,0.33-0.25c0.03,0.01,0.07,0.03,0.12,0.06
		c0,0.08,0.01,0.17,0,0.25c-0.04,0.2-0.1,0.39-0.14,0.58c-0.03,0.11-0.05,0.22-0.07,0.33c-0.03,0.24,0.04,0.45,0.25,0.58
		c0.23,0.14,0.47,0.16,0.71,0.03c0.11-0.06,0.2-0.15,0.29-0.23c0.09-0.09,0.17-0.17,0.33-0.19c0.12,0.26,0.15,0.54,0.09,0.83
		c-0.03,0.15-0.08,0.29-0.12,0.43c-0.06,0.24-0.01,0.35,0.22,0.44c0.08,0.03,0.17,0.05,0.25,0.07c0.19,0.03,0.34-0.04,0.45-0.2
		c0.05-0.07,0.08-0.15,0.13-0.23c0.06-0.1,0.15-0.16,0.27-0.19c0.1-0.02,0.18,0.03,0.17,0.13c-0.01,0.06-0.01,0.12-0.03,0.18
		c-0.06,0.18-0.12,0.35-0.18,0.53c-0.06,0.17-0.12,0.35-0.18,0.54c0.03,0.11,0.14,0.16,0.25,0.18c0.08,0.01,0.17-0.01,0.25-0.04
		c0.08-0.03,0.15-0.09,0.22-0.14c0.11-0.08,0.23-0.16,0.34-0.23c0.03-0.02,0.07-0.03,0.1-0.04c0.12,0.22,0.13,0.41,0.03,0.63
		c-0.05,0.13-0.12,0.25-0.18,0.37c-0.05,0.1-0.09,0.21-0.05,0.33c0.13,0.1,0.28,0.05,0.42,0.02c0.11-0.02,0.21-0.07,0.32-0.09
		C47.92,51.53,48,51.61,48,51.7c0,0.04-0.01,0.07-0.02,0.11c-0.01,0.05-0.05,0.09-0.05,0.14c-0.06,0.34-0.21,0.62-0.49,0.84
		c-0.19,0.15-0.27,0.38-0.36,0.61c-0.07,0.19-0.13,0.38-0.19,0.57c-0.07,0.19-0.16,0.36-0.3,0.51c-0.24,0.25-0.52,0.39-0.87,0.32
		c-0.29-0.05-0.57-0.01-0.83,0.13c-0.19,0.1-0.39,0.17-0.59,0.25c-0.23,0.09-0.47,0.1-0.69-0.01c-0.26-0.13-0.52-0.14-0.8-0.07
		c-0.06,0.02-0.12,0.02-0.18,0.03c-0.46,0.12-0.92,0.08-1.37-0.05c-0.23-0.07-0.45-0.15-0.68-0.21c-0.24-0.06-0.49-0.11-0.73-0.14
		c-0.31-0.03-0.59-0.11-0.84-0.29c-0.19-0.14-0.38-0.29-0.56-0.44c-0.19-0.16-0.38-0.32-0.58-0.47c-0.24-0.19-0.5-0.33-0.78-0.44
		c-0.23-0.09-0.46-0.2-0.68-0.3c-0.08-0.04-0.15-0.08-0.24-0.11c-0.2-0.08-0.41-0.13-0.62-0.07c-0.28,0.09-0.49-0.03-0.65-0.25
		c-0.11-0.16-0.21-0.34-0.28-0.53c-0.11-0.28-0.19-0.57-0.28-0.85c-0.04-0.13-0.1-0.25-0.21-0.35c-0.12-0.11-0.26-0.14-0.42-0.09
		c-0.04,0.02-0.08,0.06-0.12,0.1c0.02,0.06,0.04,0.12,0.07,0.18c0.05,0.14,0.12,0.27,0.16,0.41c0.05,0.16,0.09,0.31,0.23,0.41
		c0.09,0.07,0.09,0.17,0.03,0.23c-0.08,0.08-0.2,0.11-0.27,0.06c-0.06-0.04-0.12-0.1-0.15-0.16c-0.35-0.6-0.61-1.23-0.64-1.93
		c-0.02-0.47,0.09-0.92,0.3-1.34c0.17-0.33,0.27-0.67,0.31-1.03c0.05-0.43-0.02-0.85-0.16-1.25c-0.1-0.31-0.33-0.52-0.6-0.69
		c-0.9-0.57-2.1-0.46-2.88,0.27c-0.09,0.08-0.17,0.18-0.27,0.26c-0.16,0.13-0.31,0.14-0.48,0.02c-0.24-0.17-0.48-0.36-0.72-0.54
		c-0.06-0.05-0.11-0.1-0.15-0.16c-0.11-0.15-0.14-0.33-0.04-0.49c0.08-0.14,0.17-0.28,0.29-0.39c0.46-0.41,0.69-0.94,0.81-1.53
		c0.1-0.44,0.13-0.89,0.05-1.34c-0.04-0.21-0.11-0.41-0.22-0.59c-0.09-0.16-0.18-0.33-0.26-0.5c-0.16-0.33-0.32-0.65-0.6-0.89
		c-0.16-0.14-0.17-0.32-0.11-0.51c0.04-0.11,0.13-0.17,0.23-0.11c0.37,0.2,0.75,0.13,1.14,0.1c0.49-0.05,0.95-0.19,1.4-0.38
		c0.37-0.16,0.72-0.33,1.08-0.51c0.31-0.15,0.62-0.26,0.96-0.31c0.42-0.06,0.82,0.05,1.2,0.2c0.21,0.08,0.24,0.37,0.06,0.52
		c-0.03,0.03-0.1,0.04-0.14,0.03c-0.08-0.02-0.16-0.07-0.24-0.1c-0.15-0.06-0.15-0.06-0.41,0.02c0.05,0.05,0.09,0.09,0.13,0.13
		c0.61,0.5,1.07,1.12,1.4,1.83c0.21,0.45,0.4,0.91,0.59,1.38c0.04,0.11,0.04,0.24,0.06,0.36c0.01,0.1,0.01,0.2,0.05,0.29
		c0.09,0.23,0.22,0.3,0.47,0.26c0.06-0.01,0.12-0.02,0.19-0.03c0.19-0.03,0.32-0.13,0.39-0.31c0.05-0.11,0.09-0.23,0.15-0.34
		c0.14-0.27,0.35-0.42,0.66-0.4c0.07,0,0.15,0.01,0.22,0.01c0.09,0,0.14-0.05,0.17-0.12c0.03-0.08,0.05-0.17,0.08-0.25
		c0.04-0.13,0.11-0.22,0.26-0.23c0.34-0.03,0.61-0.2,0.86-0.42c0.12-0.11,0.24-0.22,0.37-0.32c0.24-0.2,0.51-0.36,0.84-0.37
		c0.1,0,0.17-0.05,0.22-0.12c0.04-0.06,0.08-0.13,0.12-0.19c0.06-0.1,0.15-0.17,0.27-0.19c0.34-0.07,0.62-0.26,0.88-0.47
		c0.12-0.09,0.23-0.19,0.35-0.28c0.24-0.19,0.5-0.32,0.79-0.41c0.24-0.07,0.46-0.18,0.68-0.3c0.21-0.11,0.41-0.24,0.61-0.36
		c0.33-0.19,0.66-0.34,1.04-0.4c0.17-0.03,0.34-0.09,0.51-0.14c0.21-0.06,0.42-0.08,0.62,0.01c0.12,0.05,0.24,0.05,0.36,0.02
		c0.41-0.12,0.82-0.21,1.22-0.35c0.34-0.11,0.42-0.38,0.24-0.68c-0.12-0.2-0.26-0.4-0.39-0.6c-0.58-0.9-1.13-1.83-1.53-2.83
		c-0.04-0.1-0.09-0.2-0.13-0.3c0-0.01-0.02-0.01-0.05-0.02c-0.06,0.07-0.04,0.16-0.05,0.24c-0.01,0.1-0.01,0.2-0.02,0.3
		c-0.01,0.08-0.02,0.17-0.03,0.24c-0.13,0.03-0.14-0.07-0.17-0.13c-0.31-0.52-0.31-0.69,0-1.2c0.04-0.06,0.07-0.13,0.12-0.19
		c0.25-0.3,0.35-0.66,0.37-1.04c0.01-0.2,0.04-0.4,0.06-0.62c0.1-0.04,0.2-0.08,0.3-0.11c0.09-0.02,0.18,0.06,0.17,0.15
		c-0.01,0.11-0.05,0.22-0.06,0.33c-0.01,0.08,0,0.15,0.08,0.19c0.08,0.04,0.15,0.01,0.2-0.06c0.25-0.35,0.36-0.73,0.3-1.16
		c-0.06-0.42-0.25-0.78-0.54-1.09c-0.1-0.11-0.21-0.21-0.31-0.32c-0.85-0.94-1.39-2.03-1.65-3.27c-0.15-0.72-0.25-1.45-0.38-2.17
		c-0.03-0.15,0.04-0.26,0.13-0.37c-0.08-0.4-0.15-0.79-0.24-1.18c-0.09-0.4-0.26-0.76-0.57-1.03c-0.04-0.03-0.07-0.07-0.1-0.11
		c-0.01-0.02-0.02-0.05-0.04-0.09c0.11-0.28,0.34-0.46,0.63-0.57c0.15-0.06,0.3-0.02,0.43,0.06c0.2,0.13,0.38,0.27,0.6,0.43
		c0.11,0,0.15-0.11,0.17-0.22c0.01-0.12-0.04-0.24-0.15-0.28c-0.28-0.1-0.48-0.3-0.72-0.46c-0.24-0.16-0.44-0.15-0.65,0.04
		c-0.22,0.2-0.46,0.38-0.61,0.65c-0.02,0.03-0.04,0.06-0.07,0.09c-0.1,0.11-0.22,0.15-0.33,0.05c-0.15-0.15-0.33-0.15-0.52-0.17
		c-0.65-0.08-1.24-0.34-1.81-0.66c0.08-0.21,0.14-0.26,0.28-0.24c0.1,0.01,0.19,0.05,0.28,0.08c0.08-0.05,0.07-0.11,0.03-0.16
		c-0.08-0.11-0.15-0.23-0.26-0.31c-1.4-1.09-2.66-2.34-3.95-3.55c-0.48-0.45-0.97-0.9-1.47-1.33c-1.13-0.98-2.44-1.58-3.92-1.81
		c-0.31-0.05-0.62-0.08-0.93-0.09c-0.82-0.04-1.64-0.07-2.47-0.1c-0.26-0.01-0.52-0.01-0.78-0.04c-0.15-0.01-0.3-0.04-0.44-0.09
		c-0.25-0.09-0.37-0.29-0.32-0.56c0.03-0.17,0.09-0.34,0.14-0.5c0.03-0.08,0.08-0.16,0.1-0.24c0.02-0.07,0.03-0.15-0.06-0.19
		c-0.29,0.23-0.61,0.73-0.67,1.04c-0.01,0.07-0.02,0.15-0.02,0.22c0,0.34,0.18,0.55,0.52,0.63c0.13,0.03,0.27,0.04,0.41,0.07
		c0.1,0.02,0.14,0.11,0.11,0.2c-0.14,0.45-0.59,0.86-1.06,0.88c-0.4,0.02-0.79-0.06-1.08-0.4c-0.06-0.08-0.15-0.13-0.23-0.19
		c-0.65-0.55-0.97-1.24-0.98-2.1c0-0.39,0.05-0.77,0.11-1.15c0.04-0.26,0.03-0.52-0.03-0.78c-0.13-0.54-0.47-0.8-1.02-0.79
		c-0.54,0.02-1,0.2-1.36,0.6c-0.1,0.11-0.22,0.19-0.35,0.27c-0.18,0.1-0.35,0.24-0.51,0.37c-0.11,0.09-0.2,0.19-0.3,0.28
		c-0.52,0.51-1.16,0.7-1.87,0.71c-0.39,0.01-0.71-0.14-0.96-0.42c-0.11-0.13-0.21-0.28-0.31-0.42c-0.09-0.13-0.17-0.28-0.25-0.42
		c-0.08-0.13-0.07-0.25,0.02-0.35c0.08-0.09,0.18-0.13,0.3-0.07c0.04,0.02,0.09,0.03,0.13,0.05c0.01-0.04,0.02-0.07,0.01-0.08
		c-0.3-0.39-0.51-0.83-0.72-1.27c-0.12-0.27-0.25-0.55-0.38-0.81c-0.21-0.41-0.47-0.8-0.82-1.1c-0.06-0.05-0.11-0.11-0.15-0.17
		c-0.05-0.08-0.05-0.16-0.01-0.25c0.04-0.09,0.13-0.13,0.21-0.08c0.18,0.11,0.37,0.21,0.52,0.37c0.12,0.13,0.25,0.24,0.4,0.34
		c0.38,0.24,0.7,0.21,1.01-0.12c0.16-0.17,0.29-0.38,0.41-0.58c0.19-0.32,0.37-0.65,0.56-0.97c0.24-0.4,0.51-0.77,0.85-1.09
		c0.51-0.47,1.09-0.78,1.77-0.91c0.28-0.06,0.55-0.05,0.81,0.04c0.68,0.24,1.19,0.68,1.44,1.37c0.2,0.55,0.14,1.08-0.15,1.59
		c-0.11,0.19-0.26,0.37-0.39,0.55c-0.07,0.09-0.14,0.17-0.25,0.29c0.1,0,0.16,0,0.21-0.01c0.33-0.1,0.66-0.21,1-0.31
		c0.59-0.17,1.18-0.19,1.77,0c0.98,0.32,1.57,1.02,1.88,1.98c0.1,0.32,0.16,0.65,0.15,0.99c-0.01,0.31,0.06,0.59,0.22,0.86
		c0.22,0.36,0.53,0.59,0.96,0.65c0.43,0.07,0.87,0.08,1.31,0.02c0.96-0.12,1.86,0.05,2.73,0.44c0.42,0.19,0.81,0.43,1.2,0.69
		c0.3,0.2,0.52,0.47,0.68,0.78c0.1,0.2,0.19,0.41,0.27,0.61c0.3,0.8,0.91,1.29,1.67,1.61c0.11-0.08,0.21-0.15,0.32-0.22
		c0.2-0.12,0.41-0.18,0.64-0.16c0.07,0.01,0.15,0.02,0.22,0.05c0.32,0.13,0.37,0.3,0.15,0.57c-0.08,0.11-0.18,0.21-0.27,0.31
		c-0.07,0.08-0.14,0.17-0.21,0.25c0.07,0.31,0.22,0.55,0.49,0.69c0.13,0.07,0.25,0.08,0.39,0.03c0.25-0.08,0.5-0.14,0.76-0.2
		c0.13-0.03,0.27-0.03,0.41-0.04c1.1-0.03,1.72,1.08,1.41,1.93c-0.1,0.26-0.2,0.51-0.29,0.77c-0.04,0.12-0.04,0.13,0.13,0.28
		c0.04-0.04,0.09-0.08,0.12-0.13c0.19-0.27,0.32-0.57,0.39-0.88c0.13-0.57,0.15-1.14,0.02-1.71c-0.14-0.65-0.5-0.87-1.15-0.73
		c-0.13,0.03-0.26,0.06-0.41,0.1c-0.11-0.1-0.12-0.22-0.08-0.34c0.04-0.12,0.12-0.19,0.24-0.22c0.33-0.08,0.67-0.07,1,0
		c0.33,0.07,0.61,0.23,0.79,0.52C42.01,14.21,42.11,14.25,42.22,14.28c0.04,0.02,0.09,0.04,0.11,0.08c0.06,0.18,0.13,0.35,0.17,0.54
		c0.13,0.6,0.25,1.19,0.38,1.79c0.01,0.06,0.01,0.13,0.11,0.15c0.02-0.03,0.06-0.07,0.07-0.11c0.02-0.1,0.02-0.2,0.03-0.3
		c0.04-0.23,0.19-0.35,0.42-0.33c0.33,0.03,0.63,0.14,0.88,0.37c0.15,0.14,0.23,0.32,0.23,0.53c0,0.16-0.07,0.22-0.23,0.22
		c-0.15,0-0.3-0.04-0.45-0.02c-0.27,0.04-0.54,0.11-0.8,0.17c-0.18,0.04-0.31,0.14-0.41,0.3c-0.12,0.19-0.22,0.39-0.26,0.62
		c-0.02,0.12-0.03,0.25-0.02,0.37c0,0.11,0.12,0.15,0.22,0.09c0.1-0.07,0.14-0.17,0.18-0.28c0.11-0.37,0.38-0.61,0.71-0.78
		c0.5-0.27,1.04-0.35,1.6-0.26c0.33,0.06,0.62,0.2,0.82,0.48c0.03,0.05,0.05,0.11,0.08,0.19c-0.11,0.02-0.19,0.05-0.27,0.06
		c-0.1,0.01-0.2,0.01-0.3,0.02c-0.13,0.02-0.22,0.09-0.26,0.25c0.08,0.01,0.14,0.03,0.2,0.03c0.42,0.02,0.7,0.25,0.87,0.61
		c0.08,0.18,0.13,0.38,0.19,0.56c0.04,0.12,0.07,0.24,0.12,0.35c0.09,0.18,0.18,0.23,0.43,0.25c0.03-0.14,0.05-0.29,0.02-0.44
		c-0.02-0.08-0.04-0.19-0.1-0.23c-0.2-0.14-0.22-0.38-0.35-0.56c-0.02-0.02,0.01-0.08,0.02-0.13c0.35,0.18,0.35,0.18,0.5,0.54
		c0.1,0.04,0.19,0.05,0.27-0.04c0.06-0.07,0.02-0.14-0.01-0.21c-0.02-0.05-0.04-0.09-0.06-0.14c-0.3-0.71-0.78-1.26-1.44-1.68
		c-0.23-0.15-0.46-0.3-0.67-0.47c-0.48-0.38-0.87-0.85-1.21-1.36c-0.16-0.25-0.34-0.49-0.54-0.72c-0.23-0.27-0.53-0.45-0.87-0.55
		C42.45,14.21,42.33,14.18,42.22,14.28z M42.84,39c-0.25,0.54-0.34,0.62-0.88,0.78c-0.08,0.03-0.17,0.05-0.25,0.07
		c-0.11,0.04-0.21,0.07-0.31,0.12c-0.22,0.1-0.37,0.25-0.43,0.49c-0.02,0.08-0.05,0.16-0.08,0.24c-0.08,0-0.14,0.01-0.2,0
		c-0.1-0.02-0.19-0.05-0.29-0.06c-0.27-0.03-0.4,0.06-0.46,0.32c-0.03,0.14-0.05,0.3-0.05,0.44c-0.01,0.25,0,0.5,0,0.75
		c0,0.04,0.02,0.1-0.07,0.13c-0.03-0.04-0.07-0.08-0.1-0.13c-0.09-0.15-0.17-0.31-0.27-0.45c-0.14-0.19-0.32-0.23-0.52-0.12
		c-0.19,0.1-0.3,0.26-0.3,0.48c0,0.1,0.02,0.2,0.05,0.29c0.07,0.24,0.13,0.48,0.21,0.71c0.06,0.15,0.15,0.29,0.24,0.42
		c0.07,0.09,0.18,0.09,0.26,0.01c0.06-0.06,0.12-0.13,0.17-0.2c0.31-0.54,0.77-0.91,1.3-1.21c0.3-0.17,0.62-0.33,0.92-0.49
		c0.14-0.08,0.29-0.15,0.43-0.23c0.22-0.13,0.33-0.33,0.33-0.59c0-0.12-0.02-0.24,0.01-0.38c0.05,0.04,0.09,0.05,0.11,0.08
		c0.33,0.35,0.62,0.24,0.89,0.02c0.02-0.02,0.04-0.03,0.06-0.05c0.32-0.31,0.7-0.46,1.16-0.41c0.18,0.02,0.34-0.03,0.5-0.11
		c0.09-0.05,0.18-0.09,0.27-0.13c0.17-0.09,0.35-0.12,0.54-0.11c0.42,0.03,0.85,0,1.27-0.07c0.37-0.06,0.74-0.12,1.11-0.17
		c0.11-0.02,0.18-0.07,0.21-0.18c0.03-0.11,0.01-0.25,0.16-0.33c0.05,0.06,0.1,0.11,0.14,0.17c0.04,0.06,0.07,0.13,0.11,0.19
		c0.13,0.17,0.31,0.21,0.49,0.1c0.17-0.1,0.24-0.25,0.18-0.44c-0.08-0.29-0.16-0.58-0.27-0.85c-0.08-0.21-0.18-0.41-0.29-0.6
		c-0.08-0.15-0.22-0.23-0.4-0.24c-0.22-0.01-0.29,0.06-0.29,0.28c0,0.07,0.01,0.15,0.01,0.22c0,0.08-0.02,0.15-0.14,0.17
		c-0.05-0.05-0.12-0.1-0.18-0.16c-0.08-0.06-0.15-0.13-0.23-0.19c-0.14-0.1-0.28-0.1-0.42,0c-0.14,0.1-0.19,0.23-0.15,0.39
		c0.03,0.11,0.07,0.21,0.11,0.32c0.06,0.15,0.13,0.3,0.11,0.47c0,0.04,0.01,0.1-0.05,0.1c-0.31-0.37-0.6-0.74-0.91-1.1
		c-0.09-0.11-0.2-0.19-0.34-0.21c-0.36-0.07-0.84,0.4-0.67,0.77c0.04,0.09,0.07,0.19,0.09,0.28c0.03,0.13,0,0.25-0.15,0.3
		c-0.14-0.05-0.19-0.19-0.27-0.29c-0.08-0.11-0.16-0.23-0.25-0.32c-0.13-0.13-0.26-0.14-0.41-0.05c-0.07,0.04-0.14,0.1-0.21,0.16
		c-0.11,0.09-0.21,0.18-0.32,0.26c-0.26,0.21-0.56,0.32-0.9,0.31C43.09,38.97,42.97,38.99,42.84,39z M47.15,52.29
		c-0.43-0.14-0.49-0.19-0.71-0.58c-0.02-0.04-0.05-0.09-0.07-0.13c-0.09-0.18-0.22-0.33-0.38-0.46c-0.15-0.11-0.28-0.25-0.41-0.38
		c-0.16-0.17-0.31-0.36-0.48-0.52c-0.18-0.17-0.39-0.31-0.59-0.47c0,0-0.01-0.01-0.01-0.03c0-0.09,0-0.17-0.01-0.26
		c0-0.3-0.07-0.4-0.35-0.5c-0.12-0.04-0.24-0.07-0.35-0.12c-0.7-0.26-1.27-0.68-1.69-1.3c-0.05-0.07-0.1-0.14-0.16-0.22
		c-0.13,0.12-0.11,0.27-0.13,0.4c-0.05,0.24-0.13,0.45-0.39,0.55c-0.21,0.08-0.28,0.26-0.27,0.49c0.03,0.43,0.16,0.8,0.52,1.08
		c0.11,0.08,0.22,0.17,0.31,0.27c0.15,0.15,0.28,0.32,0.42,0.47c0.04,0.04,0.07,0.08,0.12,0.13c0.05-0.1,0.1-0.18,0.13-0.26
		c0.03-0.08,0.06-0.16,0.09-0.26c-0.08-0.07-0.17-0.13-0.23-0.2c-0.13-0.15-0.14-0.32-0.06-0.49c0.04-0.09,0.1-0.17,0.17-0.24
		c0.21-0.22,0.35-0.25,0.52,0.05c0.06,0.1,0.11,0.22,0.22,0.27c0.13-0.1,0.04-0.2,0.05-0.29c0.01-0.12,0.09-0.18,0.2-0.16
		c0.34,0.06,0.55,0.27,0.68,0.58c0.04,0.09,0.02,0.18-0.06,0.23c-0.08,0.06-0.17,0.1-0.25,0.16c-0.74,0.49-1.17,1.15-1.02,2.08
		c0.04,0.26,0.1,0.51,0.2,0.76c0.12,0.31,0.28,0.36,0.59,0.21c0.26-0.13,0.54-0.2,0.83-0.21c0.24-0.01,0.47,0,0.71,0.02
		c0.59,0.05,1.13-0.12,1.66-0.36C47.06,52.55,47.14,52.46,47.15,52.29z M41.91,54.03c-0.03-0.11-0.05-0.21-0.09-0.3
		c-0.12-0.33-0.39-0.52-0.74-0.52c-0.09,0-0.17,0.02-0.26,0.02c-0.08,0-0.17-0.01-0.24-0.01c-0.02-0.05-0.03-0.07-0.03-0.09
		c-0.03-0.42-0.28-0.53-0.62-0.57c-0.19-0.02-0.37-0.05-0.56-0.08c-0.3-0.04-0.56-0.13-0.71-0.41c-0.06-0.11-0.17-0.18-0.29-0.22
		c-0.22-0.06-0.38,0.04-0.38,0.27c-0.01,0.42,0.08,0.82,0.29,1.19c0.02,0.03,0.06,0.04,0.09,0.07c0.05-0.01,0.1-0.01,0.15-0.03
		c0.27-0.1,0.52,0.03,0.64,0.3c0.04,0.1,0.09,0.2,0.14,0.31c0.11,0.24,0.31,0.35,0.57,0.35c0.07,0,0.15-0.01,0.22-0.02
		c0.24-0.04,0.47,0,0.7,0.09c0.13,0.05,0.25,0.11,0.37,0.17c0.38,0.19,0.77,0.28,1.17,0.14c0.15,0.06,0.27,0.13,0.4,0.17
		c0.16,0.05,0.31,0.01,0.39-0.14c0.13-0.24,0.24-0.49,0.34-0.74c0.04-0.08,0.01-0.19-0.07-0.23c-0.17-0.1-0.34-0.21-0.53-0.27
		c-0.21-0.07-0.35,0-0.48,0.19c-0.05,0.07-0.08,0.16-0.13,0.23C42.17,53.98,42.08,54.07,41.91,54.03z M46.13,26.16
		c0.19-0.11,0.36-0.2,0.53-0.31c0.62-0.4,1.06-0.94,1.27-1.65c0.13-0.42,0.18-0.85,0.14-1.29c-0.04-0.38-0.09-0.77-0.14-1.15
		c-0.08-0.64-0.06-1.27,0.18-1.88c0.06-0.16,0.11-0.33,0.14-0.5c0.06-0.35,0-0.67-0.26-0.93c-0.04-0.04-0.1-0.06-0.15-0.09
		c-0.07,0.16-0.03,0.29,0.01,0.42c0.04,0.12,0.09,0.24,0.11,0.36c0.04,0.23-0.02,0.35-0.22,0.46c-0.09,0.04-0.18,0.08-0.27,0.12
		c0.02,0.06,0.03,0.11,0.05,0.16c0.14,0.35,0.2,0.72,0.18,1.1c-0.01,0.32-0.04,0.65-0.06,0.97c-0.04,0.46-0.08,0.92,0.02,1.38
		c0.04,0.17,0.03,0.35-0.03,0.52c-0.16,0.45-0.46,0.76-0.9,0.94c-0.17,0.07-0.33,0.08-0.51,0.02c-0.16-0.06-0.33-0.1-0.5-0.14
		c-0.05-0.01-0.11,0.02-0.17,0.04c0.06,0.17,0.11,0.31,0.15,0.45c0.04,0.14,0.07,0.29,0.11,0.43
		C45.85,25.78,45.91,25.98,46.13,26.16z M17.85,7.84c0.23,0.42,0.51,0.57,0.88,0.49c0.16-0.03,0.31-0.09,0.46-0.15
		c0.38-0.17,0.72-0.4,1.01-0.7c0.28-0.28,0.55-0.58,0.83-0.87c0.29-0.3,0.57-0.59,0.87-0.87c0.19-0.18,0.4-0.34,0.67-0.4
		c0.04-0.01,0.07-0.03,0.1-0.05c0.1-0.06,0.15-0.2,0.07-0.29c-0.18-0.2-0.3-0.42-0.35-0.68c-0.02-0.11-0.12-0.15-0.23-0.16
		c-0.25-0.02-0.43,0.09-0.54,0.32c-0.15,0.31-0.31,0.63-0.44,0.95c-0.23,0.55-0.53,1.04-0.94,1.47c-0.27,0.29-0.57,0.55-0.86,0.83
		c-0.26,0.25-0.56,0.31-0.9,0.21c-0.1-0.03-0.19-0.06-0.29-0.07C18.09,7.86,18,7.86,17.85,7.84z M37.48,43.7
		c-0.1-0.04-0.16-0.08-0.21-0.13c-0.1-0.09-0.19-0.2-0.28-0.29c-0.15-0.14-0.34-0.1-0.41,0.1c-0.02,0.06-0.03,0.12-0.03,0.18
		c0,0.15,0,0.3,0.01,0.45c0,0.05,0.01,0.1,0.03,0.14c0.09,0.19,0.17,0.38,0.28,0.57c0.14,0.26,0.31,0.33,0.59,0.25
		c0.34-0.09,0.6-0.29,0.79-0.58c0.37-0.57,0.29-1.41-0.17-1.9c-0.06-0.06-0.13-0.11-0.21-0.14c-0.15-0.06-0.31,0.03-0.34,0.19
		c-0.01,0.07-0.01,0.15-0.01,0.22c0,0.24,0,0.47,0,0.71C37.5,43.53,37.49,43.6,37.48,43.7z M46.5,22.14
		c-0.44,0.12-0.82,0.4-1.28,0.32c-0.1,0.17-0.11,0.33-0.09,0.49c0.01,0.16,0.08,0.28,0.25,0.34c0.32,0.1,0.65,0.17,0.99,0.13
		c0.21-0.02,0.41-0.1,0.59-0.22c0.13-0.09,0.25-0.2,0.32-0.36c-0.05-0.02-0.09-0.05-0.11-0.04c-0.19,0.12-0.42,0.13-0.62,0.24
		c-0.05,0.03-0.12,0.03-0.18,0.02c-0.11-0.01-0.22-0.12-0.24-0.25c-0.02-0.1,0.04-0.16,0.13-0.21c0.08-0.04,0.16-0.07,0.23-0.12
		C46.58,22.39,46.61,22.29,46.5,22.14z M36.38,50.86c-0.04-0.06-0.06-0.1-0.09-0.14c-0.14-0.15-0.14-0.14-0.35-0.07
		c-0.13,0.04-0.26,0.06-0.4,0.08c-0.09,0.01-0.17,0.01-0.26,0.02C35.08,50.78,35,50.88,35,51.08c0,0.24,0.07,0.47,0.21,0.67
		c0.09,0.13,0.21,0.21,0.37,0.24c0.25,0.04,0.44-0.09,0.49-0.34c0.01-0.06,0.01-0.12,0.02-0.19C36.11,51.12,36.12,51.12,36.38,50.86
		z M44.7,53.44c-0.56,0-0.97,0.43-0.95,0.96c0.01,0.21,0.13,0.31,0.35,0.27c0.4-0.07,0.7-0.29,0.93-0.63
		c0.04-0.06,0.07-0.13,0.08-0.21c0.04-0.18-0.07-0.35-0.25-0.39C44.79,53.44,44.72,53.44,44.7,53.44z M37.29,52.62
		c0.1,0.01,0.19-0.04,0.24-0.17c0.02-0.06,0.03-0.12,0.06-0.18c0.06-0.12,0.05-0.24-0.03-0.35c-0.16-0.23-0.35-0.42-0.57-0.58
		c-0.15-0.1-0.28-0.07-0.38,0.07c-0.07,0.1-0.1,0.21-0.06,0.32c0.08,0.21,0.16,0.42,0.27,0.61C36.9,52.51,37.05,52.6,37.29,52.62z
		 M46.47,53.26c-0.3,0.12-0.55,0.22-0.8,0.33c-0.15,0.06-0.25,0.18-0.24,0.35c0.01,0.13,0.04,0.27,0.09,0.4
		c0.08,0.18,0.29,0.21,0.44,0.09c0.15-0.13,0.3-0.27,0.43-0.42C46.57,53.79,46.59,53.56,46.47,53.26z M45.15,21.52
		c0.32-0.07,0.55-0.19,0.77-0.4c0.18-0.18,0.35-0.38,0.42-0.67c-0.17-0.03-0.33-0.06-0.49-0.08c-0.46-0.04-0.73,0.13-0.95,0.6
		c0.03,0.01,0.07,0.05,0.09,0.04c0.08-0.03,0.16-0.07,0.24-0.1c0.09-0.04,0.17,0,0.21,0.09c0.05,0.09,0.04,0.17-0.02,0.24
		C45.33,21.32,45.25,21.41,45.15,21.52z M46.79,22c0.25-0.1,0.3-0.14,0.36-0.3c0.07-0.2,0.08-0.4-0.03-0.61
		C46.83,21.51,46.77,21.66,46.79,22z M27.45,9.21c-0.19,0.08-0.23,0.1-0.24,0.17c0,0.02,0.01,0.05,0.03,0.07
		c0.01,0.01,0.05,0.03,0.06,0.02c0.05-0.04,0.1-0.07,0.13-0.12C27.45,9.32,27.44,9.27,27.45,9.21z"/>
	<path d="M37.79,25.65c0.27-0.34,0.57-0.54,0.86-0.75c0.14-0.1,0.28-0.21,0.42-0.32c0.11-0.08,0.22-0.17,0.33-0.24
		c0.25-0.14,0.5-0.14,0.75,0c0.1,0.06,0.21,0.12,0.29,0.26c-0.07,0.02-0.11,0.03-0.16,0.04c-0.11,0.01-0.22,0.02-0.33,0.04
		c-0.55,0.07-0.98,0.34-1.31,0.78c-0.28,0.37-0.46,0.8-0.61,1.24c-0.07,0.22-0.06,0.44,0.09,0.64c0.07,0.09,0.12,0.19,0.17,0.29
		c0.03,0.07-0.02,0.16-0.1,0.16c-0.14,0-0.27-0.01-0.41-0.02c-0.17-0.01-0.23,0.01-0.3,0.16c-0.11,0.25-0.18,0.52-0.11,0.8
		c0.21,0.83,0,1.58-0.47,2.27c-0.42,0.62-0.94,1.16-1.55,1.61c-0.65,0.48-1.37,0.76-2.18,0.82c-0.29,0.02-0.58,0-0.85-0.07
		c-0.35-0.08-0.65-0.26-0.85-0.57c-0.17-0.25-0.38-0.46-0.61-0.65c-0.58-0.46-0.87-1.09-0.92-1.81c-0.02-0.33-0.02-0.68,0.02-1.01
		c0.07-0.58,0.12-1.17,0.11-1.75c-0.02-0.73,0.13-1.44,0.39-2.12c0.25-0.68,0.65-1.26,1.25-1.69c0.33-0.24,0.65-0.51,0.98-0.75
		c0.39-0.29,0.82-0.53,1.3-0.65c0.62-0.16,1.24-0.13,1.84,0.07c0.5,0.16,0.87,0.48,1.13,0.93c0.05,0.09,0.09,0.18,0.14,0.27
		c0.03,0.06,0.07,0.12,0.14,0.09c0.05-0.02,0.08-0.09,0.1-0.14c0.02-0.03,0.01-0.07,0.01-0.11c0.04-0.2,0.14-0.25,0.31-0.15
		c0.09,0.06,0.19,0.13,0.25,0.22c0.1,0.16,0.17,0.33,0.24,0.5c0.05,0.12,0,0.21-0.12,0.27c-0.07,0.03-0.14,0.05-0.21,0.09
		c-0.09,0.06-0.19,0.12-0.27,0.2c-0.11,0.11-0.15,0.26-0.09,0.41c0.03,0.08,0.06,0.16,0.1,0.24C37.62,25.37,37.69,25.48,37.79,25.65
		z M34.6,31.96c0.07-0.01,0.11-0.02,0.14-0.03c0.6-0.21,1.04-0.62,1.44-1.09c0.02-0.03,0.04-0.06,0.06-0.1
		c0.04-0.07,0.03-0.15-0.02-0.21c-0.07-0.08-0.16-0.15-0.24-0.24c-0.08-0.09-0.09-0.18-0.02-0.27c0.07-0.1,0.15-0.2,0.22-0.3
		c0.07-0.12,0.06-0.21-0.03-0.3c-0.07-0.07-0.14-0.14-0.28-0.11c-0.02,0.04-0.06,0.09-0.09,0.14c-0.25,0.4-0.49,0.81-0.75,1.2
		c-0.11,0.17-0.25,0.31-0.38,0.46C34.42,31.38,34.4,31.65,34.6,31.96z M31.37,31.55c0.05,0.14,0.16,0.21,0.29,0.25
		c0.04-0.02,0.08-0.03,0.1-0.05c0.21-0.22,0.48-0.34,0.77-0.44c0.08-0.03,0.16-0.06,0.24-0.1c0.05-0.02,0.09-0.07,0.16-0.13
		c-0.25-0.04-0.46-0.08-0.67-0.1c-0.25-0.03-0.46,0.05-0.63,0.26C31.57,31.35,31.47,31.44,31.37,31.55z M36.35,30.44
		c0.03-0.04,0.07-0.07,0.1-0.11c-0.02-0.01-0.03-0.04-0.05-0.04c-0.07-0.01-0.13,0.04-0.11,0.09C36.3,30.4,36.32,30.41,36.35,30.44z
		 M37.58,23.93c-0.04,0.02-0.08,0.03-0.08,0.03c0.01,0.04,0.03,0.08,0.04,0.13c0.03-0.01,0.08-0.03,0.08-0.04
		C37.61,24.01,37.59,23.97,37.58,23.93z"/>
	<path d="M8.66,12.4c0.02,0.06,0.05,0.13,0.07,0.2c0.08,0.24,0.13,0.48,0.23,0.71c0.19,0.42,0.52,0.63,0.98,0.61
		c0.22-0.01,0.45-0.04,0.67-0.08c0.57-0.1,1.11-0.28,1.63-0.54c0.36-0.18,0.71-0.36,1.07-0.53c0.39-0.19,0.8-0.34,1.23-0.43
		c0.73-0.14,1.44-0.06,2.14,0.18c0.48,0.16,0.97,0.32,1.46,0.45c0.9,0.24,1.81,0.33,2.74,0.26c0.37-0.02,0.75-0.05,1.12-0.09
		c0.64-0.06,1.27,0.01,1.9,0.07c0.35,0.03,0.69,0.11,1.02,0.22c0.97,0.33,1.63,0.99,2.03,1.91c0.03,0.07,0.05,0.14,0.05,0.21
		c0.01,0.25-0.19,0.39-0.42,0.29c-0.63-0.27-1.3-0.33-1.97-0.36c-0.79-0.03-1.57,0.04-2.35,0.11c-0.83,0.08-1.66,0.15-2.5,0.15
		c-0.94,0.01-1.86,0.18-2.76,0.44c-0.9,0.26-1.79,0.55-2.68,0.82c-0.67,0.2-1.33,0.41-2.02,0.53c-0.79,0.13-1.59,0.14-2.38-0.01
		c-1.11-0.22-1.79-0.88-2.04-1.98c-0.12-0.54-0.17-1.08-0.13-1.63c0.05-0.59,0.3-1.07,0.75-1.45c0.03-0.02,0.06-0.04,0.09-0.06
		C8.62,12.41,8.63,12.41,8.66,12.4z"/>
	<path d="M44.76,31.79c-0.04,0.23-0.07,0.39-0.09,0.55c-0.06,0.44-0.11,0.89-0.16,1.34c-0.02,0.12-0.08,0.2-0.17,0.22
		c-0.11,0.02-0.2-0.01-0.26-0.1c-0.25-0.37-0.58-0.65-0.89-0.96c-0.04-0.04-0.09-0.09-0.13-0.13c-0.1-0.08-0.19-0.07-0.3,0.01
		c-0.09,0.07-0.12,0.15-0.06,0.26c0.05,0.1,0.11,0.2,0.16,0.3c0.09,0.21,0.09,0.28,0,0.56c-0.06-0.04-0.13-0.07-0.17-0.12
		c-0.1-0.13-0.17-0.27-0.27-0.41c-0.1-0.14-0.2-0.28-0.32-0.41c-0.04-0.05-0.12-0.07-0.23-0.14c0.03,0.16,0.04,0.27,0.07,0.37
		c0.08,0.3,0.22,0.58,0.37,0.85c0.07,0.12,0.12,0.25,0.16,0.38c0.03,0.11-0.02,0.22-0.12,0.29c-0.09,0.07-0.19,0.05-0.28,0
		c-0.11-0.06-0.21-0.14-0.31-0.21c-0.3-0.22-0.59-0.47-0.82-0.76c-0.57-0.7-0.75-1.49-0.47-2.35c0.13-0.41,0.21-0.81,0.19-1.24
		c-0.01-0.42,0.1-0.84,0.24-1.24c0.14-0.41,0.3-0.82,0.45-1.23c0.11-0.33,0.21-0.67,0.31-1c0.07-0.22,0.02-0.41-0.15-0.58
		c-0.1-0.09-0.18-0.2-0.27-0.32c0.14-0.15,0.33-0.08,0.49-0.16c-0.02-0.05-0.03-0.11-0.07-0.15c-0.12-0.13-0.24-0.25-0.37-0.37
		c-0.13-0.12-0.26-0.23-0.39-0.35c-0.3-0.26-0.44-0.6-0.46-0.99c-0.04-0.78,0.08-1.54,0.35-2.28c0.12-0.33,0.34-0.52,0.67-0.57
		c0.16-0.02,0.32-0.04,0.48-0.03c0.4,0.04,0.79,0.14,1.16,0.29c0.5,0.21,0.84,0.56,1.04,1.07c0.14,0.35,0.2,0.72,0.26,1.09
		c0.2,1.16,0.53,2.28,1.05,3.34c0.07,0.13,0.14,0.26,0.2,0.4c0.08,0.17,0.15,0.34,0.2,0.52c0.12,0.41,0,0.76-0.33,1.04
		c-0.09,0.07-0.18,0.13-0.27,0.2c-0.26,0.21-0.31,0.43-0.16,0.72c0.02,0.04,0.05,0.09,0.08,0.13c0.35,0.49,0.44,1.05,0.38,1.64
		c-0.02,0.2-0.02,0.4-0.05,0.6c-0.02,0.11-0.06,0.21-0.12,0.3c-0.06,0.09-0.19,0.09-0.26,0.01c-0.06-0.07-0.09-0.15-0.14-0.22
		C44.9,31.92,44.86,31.88,44.76,31.79z M42.85,31.9c-0.14-0.18-0.27-0.3-0.41-0.39c-0.35-0.23-0.7-0.47-1.01-0.75c0,0-0.02,0-0.03,0
		C41.46,31.43,42,31.88,42.85,31.9z M43.65,27.38c-0.04,0.02-0.08,0.03-0.08,0.05c-0.07,0.55,0.06,1.04,0.45,1.44
		c0.03,0.03,0.08,0.04,0.15,0.08C44.13,28.35,43.93,27.85,43.65,27.38z"/>
	<path d="M15.87,27.64c-0.05-0.03-0.08-0.03-0.09-0.05c-0.36-0.5-0.73-0.98-1.07-1.49c-0.36-0.54-0.57-1.13-0.6-1.79
		c-0.02-0.44-0.23-0.76-0.62-0.96c-0.7-0.34-1.45-0.55-2.22-0.59c-0.22-0.01-0.44,0.06-0.66,0.11c-0.37,0.09-0.51,0.02-0.57-0.36
		c-0.02-0.15-0.02-0.3,0-0.45c0.06-0.48,0.22-0.92,0.48-1.33c0.32-0.51,0.66-1,1.1-1.41c0.11-0.1,0.2-0.22,0.29-0.34
		c0.03-0.03,0.03-0.09,0.06-0.16c-0.18,0-0.31,0.07-0.43,0.15c-0.19,0.12-0.36,0.28-0.49,0.46c-0.25,0.34-0.49,0.69-0.72,1.05
		c-0.23,0.37-0.44,0.75-0.66,1.13c-0.05,0.09-0.08,0.18-0.12,0.27c-0.15,0.36-0.39,0.66-0.71,0.9c-0.07,0.05-0.15,0.09-0.23,0.13
		c-0.12,0.06-0.24,0.08-0.35-0.02c-0.13-0.11-0.22-0.25-0.17-0.43c0.04-0.12,0.09-0.23,0.16-0.34c0.11-0.17,0.18-0.35,0.23-0.55
		c0.28-1.15,0.91-2.07,1.85-2.78c0.37-0.28,0.76-0.52,1.18-0.71c0.4-0.18,0.53-0.12,0.68,0.28c0.03,0.08,0.06,0.16,0.1,0.26
		c0.06-0.04,0.12-0.06,0.17-0.1c0.61-0.46,1.28-0.82,1.99-1.1c0.68-0.27,1.37-0.53,2.06-0.78c0.15-0.05,0.31-0.08,0.47-0.09
		c0.22-0.01,0.45,0,0.67,0c0.19,0.01,0.27,0.06,0.29,0.17c0.04,0.17-0.03,0.34-0.18,0.41c-0.08,0.04-0.17,0.05-0.25,0.07
		c-0.21,0.05-0.42,0.08-0.62,0.13c-0.92,0.24-1.65,0.75-2.2,1.52c-0.3,0.42-0.54,0.87-0.67,1.37c-0.08,0.32-0.1,0.64-0.05,0.96
		c0.06,0.41,0.26,0.75,0.58,1.02c0.15,0.13,0.32,0.24,0.5,0.33c1.03,0.52,1.53,1.39,1.68,2.49c0.06,0.46,0.04,0.92,0,1.38
		c-0.03,0.35-0.17,0.65-0.45,0.87C16.14,27.4,16.01,27.52,15.87,27.64z"/>
	<path d="M21.98,50.92c-0.4,0-0.72-0.09-1.03-0.23c-0.49-0.24-0.9-0.58-1.27-0.98c-0.5-0.54-0.89-1.13-1.08-1.85
		c-0.13-0.5-0.17-1.01-0.1-1.52c0.18-1.33,0.57-2.6,1.2-3.79c0.84-1.6,2.11-2.72,3.81-3.36c0.29-0.11,0.59-0.18,0.91-0.17
		c0.19,0,0.37-0.03,0.56-0.05c0.79-0.1,1.38,0.23,1.83,0.85c0.07,0.09,0.06,0.18-0.02,0.27c-0.12,0.16-0.2,0.2-0.38,0.12
		c-0.24-0.12-0.43-0.03-0.61,0.12c-0.3,0.24-0.6,0.49-0.91,0.71c-0.37,0.27-0.77,0.5-1.2,0.68c-0.44,0.18-0.8,0.46-1.1,0.81
		c-0.16,0.19-0.31,0.39-0.47,0.58c-0.23,0.28-0.45,0.57-0.69,0.83c-0.52,0.59-0.81,1.28-0.93,2.05c-0.07,0.44-0.09,0.89-0.1,1.34
		c0,0.24-0.02,0.47-0.1,0.7c-0.14,0.41-0.08,0.79,0.17,1.14c0.13,0.18,0.26,0.37,0.41,0.53c0.3,0.33,0.69,0.49,1.13,0.53
		c0.1,0.01,0.2,0.01,0.3,0.02c0.11,0.02,0.22,0.06,0.29,0.15c0.15,0.18,0.09,0.41-0.14,0.46C22.27,50.9,22.1,50.9,21.98,50.92z"/>
	<path d="M4.51,20.05c-0.13,0.01-0.23-0.1-0.21-0.2c0.02-0.11,0.05-0.22,0.09-0.32c0.17-0.53,0.26-1.07,0.22-1.62
		c-0.04-0.54-0.14-1.06-0.29-1.58c-0.05-0.17-0.13-0.33-0.21-0.48c-0.18-0.32-0.46-0.52-0.82-0.61c-0.13-0.03-0.27-0.06-0.4-0.1
		c-0.29-0.1-0.39-0.29-0.33-0.58c0.17-0.82,0.53-1.52,1.19-2.06c0.31-0.26,0.64-0.48,1-0.66c0.7-0.36,1.4-0.71,2.1-1.06
		c0.19-0.1,0.38-0.2,0.56-0.29c0.14-0.07,0.28-0.09,0.43-0.01c0.25,0.14,0.35,0.36,0.23,0.63c-0.14,0.29-0.24,0.6-0.33,0.91
		c-0.15,0.5-0.28,1.01-0.36,1.53c-0.12,0.81-0.01,1.59,0.36,2.32c0.07,0.14,0.14,0.29,0.2,0.44c0.12,0.35,0.04,0.67-0.2,0.94
		c-0.1,0.11-0.22,0.21-0.34,0.29c-0.22,0.16-0.46,0.31-0.68,0.46c-0.28,0.19-0.56,0.38-0.83,0.58c-0.45,0.34-0.84,0.74-1.13,1.23
		C4.71,19.89,4.66,19.95,4.61,20C4.58,20.03,4.52,20.04,4.51,20.05z"/>
	<path d="M12.24,47.96c0-0.35,0-0.7,0-1.05c0-0.13,0.01-0.25,0.1-0.35c0.07-0.08,0.19-0.09,0.26,0c0.04,0.05,0.07,0.1,0.1,0.16
		c0.03,0.09,0.05,0.19,0.08,0.29c0.24,0.86,0.75,1.5,1.55,1.91c0.42,0.22,0.87,0.37,1.33,0.48c0.51,0.13,1.02,0.24,1.52,0.37
		c0.7,0.18,1.38,0.42,2.02,0.76c0.61,0.32,1.17,0.72,1.63,1.24c0.38,0.42,0.67,0.9,0.88,1.43c0.12,0.3,0.21,0.61,0.2,0.94
		c-0.01,0.14,0.02,0.27,0.03,0.41c0.01,0.18-0.03,0.26-0.15,0.3c-0.17,0.05-0.35-0.01-0.43-0.14c-0.03-0.05-0.04-0.12-0.06-0.18
		c-0.05-0.15-0.09-0.31-0.15-0.46c-0.27-0.6-0.73-0.96-1.39-1.07c-0.47-0.08-0.94-0.09-1.42-0.05c-0.29,0.02-0.57,0.07-0.85,0.1
		c-0.57,0.06-1.14,0.08-1.71-0.05c-0.48-0.11-0.92-0.31-1.31-0.62c-0.51-0.41-0.97-0.86-1.37-1.37c-0.28-0.37-0.51-0.77-0.68-1.2
		c-0.12-0.31-0.18-0.62-0.18-0.95c0-0.3,0-0.6,0-0.9C12.26,47.96,12.25,47.96,12.24,47.96z"/>
	<path d="M13.96,10.03c-0.22,0-0.34,0.12-0.37,0.34c-0.01,0.1-0.05,0.19-0.1,0.28c-0.38,0.72-0.83,1.39-1.44,1.94
		c-0.39,0.35-0.83,0.64-1.32,0.85c-0.24,0.1-0.49,0.17-0.76,0.13c-0.3-0.04-0.51-0.21-0.62-0.48c-0.06-0.15-0.08-0.31-0.11-0.47
		c-0.03-0.15-0.04-0.3-0.07-0.44c-0.04-0.15-0.17-0.22-0.32-0.2c-0.15,0.03-0.29,0.08-0.44,0.11c-0.08,0.01-0.16,0-0.28,0
		c0.05-0.08,0.06-0.12,0.09-0.15c0.24-0.26,0.52-0.46,0.82-0.65c0.24-0.15,0.49-0.3,0.74-0.44c0.7-0.4,1.25-0.94,1.66-1.63
		c0.33-0.56,0.67-1.11,1.01-1.66c0.35-0.58,0.7-1.15,1.17-1.64c0.14-0.14,0.28-0.28,0.44-0.4c0.53-0.41,1.1-0.43,1.69-0.17
		c0.22,0.1,0.41,0.25,0.51,0.48c0.26,0.57,0.57,1.11,0.74,1.71c0.04,0.13,0.06,0.27,0.07,0.4c0.01,0.13-0.08,0.21-0.21,0.22
		c-0.09,0.01-0.17,0-0.26-0.01C15.74,8,15.05,8.32,14.5,8.95c-0.27,0.31-0.44,0.67-0.5,1.07C13.99,10.03,13.98,10.03,13.96,10.03z"
		/>
	<path d="M18.01,47.96c-0.07-0.03-0.16-0.05-0.22-0.1c-0.09-0.07-0.18-0.15-0.23-0.24c-0.07-0.13-0.12-0.27-0.15-0.42
		c-0.16-0.83-0.14-1.66,0.13-2.47c0.2-0.61,0.3-1.24,0.25-1.88c-0.02-0.28-0.06-0.57-0.12-0.85c-0.14-0.7-0.14-1.39,0.1-2.07
		c0.32-0.91,0.93-1.58,1.75-2.06c0.5-0.29,1.05-0.46,1.61-0.6c0.7-0.17,1.42-0.27,2.13-0.37c0.2-0.03,0.4-0.05,0.59-0.09
		c0.4-0.08,0.8-0.03,1.18,0.09c0.89,0.28,1.63,0.8,2.21,1.53c0.43,0.54,0.6,1.17,0.61,1.85c0,0.21-0.19,0.34-0.39,0.27
		c-0.09-0.03-0.14-0.11-0.14-0.2c0-0.2-0.08-0.36-0.16-0.53c-0.41-0.81-1.08-1.22-1.97-1.26c-0.95-0.05-1.86,0.14-2.73,0.5
		c-0.81,0.34-1.55,0.8-2.2,1.39c-0.98,0.88-1.53,1.98-1.62,3.3c-0.02,0.37-0.15,0.71-0.31,1.03c-0.19,0.38-0.36,0.77-0.45,1.18
		c-0.14,0.59-0.11,1.16,0.11,1.73c0.03,0.07,0.05,0.14,0.07,0.21C18.04,47.91,18.03,47.93,18.01,47.96z"/>
	<path d="M20.34,36.44c0.19-0.01,0.37-0.02,0.56-0.03c0.18,0,0.29,0.16,0.25,0.33c-0.02,0.08-0.08,0.12-0.15,0.15
		c-0.32,0.1-0.62,0.25-0.97,0.22c-0.07-0.01-0.15,0.03-0.22,0.05c-1.15,0.39-1.98,1.13-2.39,2.29c-0.08,0.21-0.14,0.43-0.19,0.64
		c-0.2,0.89-0.4,1.77-0.59,2.66c-0.18,0.79-0.3,1.59-0.25,2.41c0.08,1.19,0.5,2.23,1.31,3.11c0.08,0.08,0.16,0.16,0.23,0.25
		c0.14,0.16,0.3,0.29,0.53,0.32c0.1,0.02,0.21,0.08,0.3,0.15c0.13,0.09,0.13,0.24,0.04,0.36c-0.08,0.11-0.19,0.17-0.32,0.17
		c-0.15,0-0.3-0.01-0.44-0.06c-0.98-0.34-1.86-0.84-2.54-1.65c-0.64-0.76-0.96-1.65-0.98-2.64c-0.01-0.4,0.02-0.79,0.09-1.19
		c0.08-0.43,0.1-0.87,0.13-1.3c0.04-0.49,0.09-0.97,0.19-1.44c0.23-1.02,0.72-1.91,1.43-2.67c0.72-0.77,1.59-1.36,2.5-1.88
		c0.25-0.14,0.53-0.22,0.82-0.24C19.89,36.44,20.11,36.45,20.34,36.44C20.34,36.45,20.34,36.44,20.34,36.44z"/>
	<path d="M52.6,14.22c0.04,0.07,0.07,0.16,0.12,0.22c0.64,0.84,0.83,1.8,0.67,2.83c-0.06,0.37-0.15,0.73-0.26,1.09
		c-0.2,0.66-0.42,1.31-0.39,2.03c-0.1-0.02-0.17-0.03-0.23-0.06c-0.44-0.21-0.81-0.5-1.11-0.87c-0.19-0.23-0.36-0.48-0.53-0.73
		c-0.25-0.39-0.51-0.77-0.81-1.12c-0.37-0.43-0.82-0.77-1.33-1.01c-0.19-0.09-0.39-0.18-0.56-0.3c-0.38-0.25-0.46-0.57-0.25-0.97
		c0.12-0.23,0.27-0.45,0.45-0.64c0.36-0.39,0.78-0.46,1.25-0.21c0.18,0.09,0.34,0.2,0.51,0.3c0.03,0.02,0.08,0,0.15,0
		c-0.05-0.17-0.14-0.26-0.25-0.35c-0.06-0.04-0.13-0.08-0.19-0.12c-0.13-0.1-0.16-0.18-0.1-0.32c0.12-0.29,0.24-0.57,0.37-0.86
		c0.12-0.26,0.31-0.44,0.59-0.53c0.13-0.04,0.25-0.03,0.35,0.06c0.11,0.11,0.21,0.24,0.31,0.37c0.03,0.04,0.04,0.09,0.06,0.14
		c0.09,0.21,0.2,0.41,0.48,0.4c0.04,0.16,0.07,0.29,0.24,0.32c0.04,0.01,0.09,0.05,0.1,0.09c0.04,0.21,0.2,0.23,0.37,0.25
		L52.6,14.22z"/>
	<path d="M9.01,29.97c0.04,0.07,0.07,0.14,0.11,0.19c0.12,0.17,0.25,0.34,0.36,0.52c0.19,0.3,0.18,0.61-0.02,0.91
		c-0.08,0.12-0.17,0.25-0.26,0.36c-0.24,0.29-0.48,0.57-0.72,0.86c-0.04,0.05-0.08,0.09-0.13,0.14c-0.3,0.31-0.65,0.4-1.06,0.27
		c-0.14-0.05-0.28-0.11-0.42-0.17c-0.07-0.03-0.14-0.05-0.2-0.08c-0.02,0.04-0.04,0.06-0.03,0.08c0.06,0.58,0.5,1.05,1.07,1.14
		c0.55,0.08,1.07-0.03,1.54-0.33c0.12-0.07,0.23-0.16,0.35-0.22c0.16-0.08,0.29-0.05,0.37,0.06c0.1,0.15,0.08,0.32-0.05,0.44
		c-0.05,0.04-0.1,0.08-0.15,0.11c-0.61,0.32-1.23,0.6-1.93,0.67c-0.62,0.06-1.22-0.01-1.79-0.26c-0.66-0.29-1.12-0.77-1.38-1.45
		c-0.12-0.33-0.2-0.67-0.21-1.02c0-0.38,0.07-0.74,0.29-1.09c0.05,0.06,0.09,0.11,0.11,0.16c0.03,0.07,0.06,0.14,0.08,0.21
		c0.13,0.59,0.59,0.86,1.08,1.1c0.02,0.01,0.05,0,0.07-0.01c0.06-0.08-0.01-0.14-0.04-0.19c-0.13-0.24-0.23-0.5-0.25-0.78
		c-0.02-0.43,0.13-0.78,0.42-1.08c0.16-0.17,0.33-0.21,0.54-0.11c0.1,0.05,0.19,0.12,0.28,0.18c0.06,0.04,0.11,0.09,0.17,0.13
		c0.11-0.12,0.08-0.25,0.1-0.37c0.01-0.05,0.01-0.1,0.01-0.15c-0.01-0.39,0.24-0.38,0.47-0.3c0.21,0.07,0.32,0.23,0.34,0.45
		C8.15,30.56,8.1,30.77,8,30.96c-0.05,0.09-0.1,0.18-0.16,0.25c-0.2,0.24-0.4,0.48-0.56,0.75c-0.03,0.05-0.09,0.09-0.12,0.12
		c-0.14,0.01-0.19-0.08-0.25-0.16c-0.08-0.09-0.11-0.22-0.24-0.3c-0.07,0.26-0.02,0.46,0.1,0.66c0.23,0.38,0.73,0.59,1.17,0.5
		c0.02-0.01,0.05-0.01,0.07-0.02c0.09-0.04,0.19-0.08,0.2-0.2c0.01-0.1-0.06-0.17-0.21-0.22c-0.11-0.04-0.26-0.03-0.34-0.14
		c-0.1-0.14-0.01-0.29,0.01-0.44c0-0.02,0.02-0.05,0.03-0.08c0.08-0.06,0.18-0.12,0.27-0.18c0.32-0.24,0.56-0.54,0.65-0.93
		c0.03-0.14,0.04-0.3,0.02-0.44c-0.02-0.18-0.12-0.32-0.3-0.39c-0.16-0.07-0.31-0.16-0.46-0.26c-0.07-0.05-0.13-0.11-0.18-0.18
		c-0.07-0.09-0.1-0.21-0.04-0.32c0.09-0.15,0.17-0.31,0.28-0.44c0.16-0.18,0.36-0.24,0.61-0.18c0.24,0.06,0.49,0.08,0.74,0.12
		c0.14,0.02,0.27,0.03,0.41,0.05c0.51,0.07,0.88,0.34,1.08,0.82c0.1,0.25,0.17,0.52,0.23,0.79c0.1,0.44,0.15,0.88,0.13,1.34
		c-0.02,0.62-0.27,1.13-0.77,1.51c-0.27,0.2-0.56,0.38-0.89,0.47c-0.21,0.06-0.37-0.02-0.47-0.21c-0.04-0.09-0.04-0.18,0.04-0.24
		c0.08-0.06,0.17-0.11,0.25-0.16c0.86-0.6,0.96-1.86,0.36-2.55c-0.09-0.1-0.2-0.19-0.31-0.27C9.26,29.93,9.15,29.92,9.01,29.97z"/>
	<path d="M12.25,34.77c0.18-0.06,0.25-0.16,0.32-0.26c0.12-0.16,0.23-0.32,0.34-0.49c0.18-0.3,0.42-0.55,0.68-0.79
		c0.14-0.12,0.32-0.07,0.38,0.11c0.02,0.06,0.02,0.12,0.01,0.18c-0.07,0.47-0.15,0.93-0.22,1.4c-0.1,0.69-0.49,1.18-1.05,1.56
		c-0.3,0.21-0.64,0.02-0.64-0.31c0-0.23,0.06-0.47,0.09-0.7c0.03-0.17,0.12-0.33,0.07-0.54c-0.06,0.03-0.11,0.04-0.15,0.07
		c-0.34,0.3-0.6,0.66-0.77,1.08c-0.31,0.22-0.62,0.43-0.93,0.64c-0.23,0.15-0.46,0.3-0.69,0.44c-0.27,0.15-0.57,0.26-0.88,0.29
		c-0.48,0.05-0.97,0.11-1.45,0.14c-0.23,0.02-0.47,0-0.71-0.03c-0.68-0.09-1.2-0.46-1.62-0.98c-0.03-0.04-0.06-0.08-0.07-0.13
		c-0.04-0.1-0.01-0.2,0.06-0.28c0.07-0.07,0.15-0.08,0.24-0.05c0.13,0.04,0.26,0.09,0.39,0.12c0.45,0.1,0.89,0.04,1.33-0.06
		c0.05-0.01,0.1-0.02,0.14-0.04c1.1-0.36,2.11-0.9,2.94-1.72c0.86-0.84,1.31-1.9,1.49-3.07c0.02-0.14,0.01-0.3-0.01-0.45
		c-0.05-0.33-0.09-0.67-0.22-0.98c-0.04-0.1-0.05-0.2,0.04-0.27c0.11-0.09,0.24-0.09,0.35-0.01c0.06,0.04,0.12,0.1,0.15,0.16
		c0.39,0.68,0.75,1.38,0.92,2.16c0.15,0.71,0.05,1.39-0.29,2.03c-0.06,0.11-0.12,0.22-0.16,0.34C12.3,34.46,12.29,34.59,12.25,34.77
		z"/>
	<path d="M8.85,42.59c0.04,0.06,0.07,0.1,0.09,0.14c0.13,0.33,0.33,0.61,0.58,0.87c0.11,0.12,0.23,0.23,0.34,0.35
		c0.48,0.51,0.84,1.08,1.03,1.76c0.2,0.69,0.18,1.38-0.04,2.06c-0.16,0.51-0.34,1.02-0.5,1.53c-0.2,0.63-0.35,1.27-0.44,1.93
		c-0.07,0.58,0.02,1.14,0.21,1.69c0.18,0.49,0.45,0.92,0.78,1.31c0.08,0.09,0.15,0.19,0.24,0.3c-0.29,0.14-0.55,0.13-0.82,0.07
		c-0.23-0.05-0.45-0.15-0.65-0.29c-0.96-0.64-1.53-1.51-1.69-2.66C7.85,50.73,7.97,49.85,8.37,49c0.29-0.62,0.54-1.26,0.7-1.93
		c0.13-0.54,0.13-1.06-0.03-1.59c-0.11-0.37-0.22-0.74-0.34-1.11c-0.09-0.3-0.14-0.61-0.12-0.92C8.61,43.15,8.68,42.87,8.85,42.59z"
		/>
	<path d="M52.61,14.23c-0.04-0.09-0.05-0.21-0.12-0.26c-0.11-0.09-0.19-0.18-0.25-0.3c-0.04-0.08-0.15-0.11-0.26-0.19
		c-0.01-0.12-0.04-0.27-0.04-0.41c0-0.24,0.09-0.36,0.33-0.44c0.19-0.07,0.39-0.08,0.59-0.02c0.16,0.05,0.32,0.13,0.47,0.22
		c0.23,0.14,0.45,0.31,0.67,0.47c0.21,0.14,0.4,0.3,0.5,0.54c0.08,0.19,0.22,0.25,0.42,0.26c0.02-0.1,0.04-0.2,0.05-0.29
		c0.02-0.1,0.02-0.2,0.04-0.3c0.06-0.22,0.21-0.38,0.44-0.41c0.2-0.02,0.4-0.02,0.59,0c0.22,0.03,0.39,0.17,0.49,0.37
		c0.08,0.15,0.13,0.32,0.17,0.49c0.1,0.36,0.18,0.72,0.28,1.08c0.12,0.46,0.25,0.91,0.25,1.39c0,0.68-0.16,1.31-0.51,1.89
		c-0.17,0.29-0.37,0.56-0.58,0.82c-0.29,0.37-0.61,0.72-0.84,1.14c-0.04,0.06-0.09,0.12-0.14,0.17c-0.2,0.17-0.6,0.1-0.65-0.21
		c-0.03-0.18-0.02-0.37-0.01-0.56c0.04-0.5,0.09-0.99,0.14-1.49c0.08-0.87-0.06-1.71-0.31-2.54c-0.09-0.28-0.24-0.52-0.45-0.72
		c-0.37-0.35-0.8-0.59-1.28-0.73C52.6,14.22,52.61,14.23,52.61,14.23z"/>
	<path d="M13.62,3.85c0.24,0.01,0.47,0.01,0.71,0.02c0.05,0,0.11,0,0.15,0.02c0.29,0.13,0.59,0.26,0.87,0.42
		c0.13,0.07,0.16,0.23,0.12,0.36c-0.04,0.11-0.15,0.18-0.3,0.18c-0.07,0-0.15,0-0.22-0.02c-0.21-0.05-0.4,0-0.58,0.07
		c-0.32,0.12-0.6,0.3-0.83,0.55c-0.73,0.78-1.39,1.6-1.86,2.57c-0.05,0.11-0.11,0.22-0.16,0.34c-0.37,0.88-0.97,1.56-1.72,2.13
		c-0.2,0.15-0.4,0.3-0.62,0.42c-0.13,0.07-0.28,0.12-0.42,0.13c-0.25,0.02-0.39-0.16-0.29-0.38c0.12-0.27,0.13-0.56,0.12-0.84
		c0-0.27,0-0.55,0-0.82C8.58,8.6,8.66,8.23,8.81,7.87c0.3-0.72,0.67-1.39,1.17-1.99c0.62-0.75,1.38-1.29,2.29-1.62
		c0.26-0.09,0.51-0.2,0.77-0.3C13.23,3.88,13.42,3.82,13.62,3.85z"/>
	<path d="M13.69,31.17c0,0.31,0,0.62,0,0.94c0,0.27-0.06,0.52-0.19,0.75c-0.08,0.14-0.16,0.19-0.26,0.16
		c-0.12-0.03-0.17-0.13-0.17-0.3c0-0.09,0.01-0.17,0.02-0.26c0.12-1.2-0.28-2.21-1.13-3.05c-0.67-0.66-1.45-1.18-2.31-1.57
		c-0.47-0.21-0.97-0.32-1.49-0.31c-0.73,0.02-1.36,0.27-1.87,0.81c-0.13,0.14-0.25,0.28-0.37,0.42c-0.06,0.06-0.12,0.14-0.2,0.17
		c-0.06,0.03-0.15,0.02-0.21,0c-0.09-0.03-0.13-0.12-0.11-0.22c0.02-0.1,0.06-0.19,0.11-0.28c0.4-0.7,0.89-1.32,1.53-1.83
		c0.99-0.78,2.12-1.13,3.38-1.11c0.81,0.02,1.46,0.36,1.97,0.99c0.25,0.32,0.44,0.67,0.6,1.03c0.27,0.63,0.46,1.29,0.62,1.96
		c0.11,0.48,0.14,0.96,0.09,1.45c-0.01,0.07-0.01,0.15-0.02,0.22C13.68,31.17,13.68,31.17,13.69,31.17z"/>
	<path d="M16.96,27.43c-0.01,0.04,0,0.08-0.02,0.11c-0.21,0.35-0.23,0.73-0.25,1.12c-0.01,0.3,0.1,0.53,0.31,0.73
		c0.07,0.07,0.15,0.13,0.23,0.19c0.53,0.41,0.89,0.93,1.15,1.54c0.21,0.48,0.34,0.99,0.46,1.5c0.07,0.29,0.03,0.57-0.05,0.85
		c-0.07,0.23-0.15,0.45-0.25,0.66c-0.36,0.83-0.82,1.59-1.41,2.28c-0.3,0.35-0.6,0.7-0.91,1.04c-0.38,0.43-0.76,0.86-1.14,1.28
		c-0.07,0.07-0.14,0.15-0.22,0.2c-0.04,0.03-0.12,0.02-0.18,0.01c-0.07-0.02-0.06-0.1-0.06-0.16c0.02-0.23,0.1-0.44,0.22-0.63
		c0.13-0.21,0.27-0.42,0.42-0.62c0.46-0.64,0.85-1.32,1.13-2.06c0.21-0.55,0.36-1.11,0.42-1.7c0.08-0.79-0.16-1.47-0.67-2.07
		c-0.06-0.07-0.11-0.13-0.18-0.19c-0.79-0.74-0.94-1.97-0.45-2.97c0.23-0.46,0.56-0.82,1-1.08C16.67,27.39,16.81,27.34,16.96,27.43z
		"/>
	<path d="M18.84,54.04c-0.7-0.01-1.39,0.1-2.07,0.26c-0.62,0.14-1.23,0.3-1.85,0.45c-0.49,0.12-0.98,0.16-1.48,0.13
		c-1.15-0.09-2-0.63-2.54-1.65c-0.35-0.67-0.45-1.39-0.4-2.14c0.03-0.5,0.15-0.98,0.33-1.45c0.1-0.26,0.19-0.51,0.29-0.77
		c0.03-0.07,0.05-0.14,0.09-0.2c0.07-0.12,0.18-0.17,0.27-0.15c0.13,0.03,0.24,0.14,0.25,0.29c0.01,0.11,0,0.22-0.01,0.34
		c-0.15,1.28,0.33,2.32,1.26,3.16c0.3,0.27,0.64,0.51,0.98,0.74c0.44,0.3,0.94,0.46,1.47,0.49c0.42,0.02,0.85,0.04,1.27,0.06
		c0.1,0,0.2-0.01,0.3,0.01c0.34,0.05,0.67,0.01,1-0.05c0.46-0.08,0.92-0.08,1.37,0.06c0.15,0.05,0.2,0.14,0.18,0.28
		c-0.02,0.13-0.1,0.2-0.23,0.2C19.16,54.08,19,54.06,18.84,54.04z"/>
	<path d="M8.86,17.67c0.34,0,0.68,0.07,1.01,0.19c0.19,0.07,0.23,0.12,0.23,0.25c-0.01,0.19-0.09,0.32-0.25,0.37
		c-0.06,0.02-0.12,0.03-0.18,0.04c-0.36,0.07-0.63,0.28-0.82,0.6c-0.08,0.13-0.15,0.26-0.2,0.4c-0.34,0.8-0.66,1.61-0.81,2.48
		c-0.01,0.05-0.02,0.1-0.04,0.14c-0.11,0.33-0.28,0.44-0.62,0.39c-0.11-0.02-0.22-0.05-0.33-0.08c-0.61-0.2-1.22-0.21-1.83,0.04
		c-0.09,0.04-0.19,0.06-0.29,0.08c-0.22,0.04-0.36-0.05-0.43-0.26c-0.06-0.17-0.05-0.34-0.02-0.52c0.12-0.63,0.35-1.22,0.71-1.75
		c0.67-0.97,1.57-1.66,2.65-2.12C8.03,17.75,8.43,17.67,8.86,17.67z"/>
	<path d="M26.69,37.51c-0.1-0.05-0.17-0.08-0.23-0.12c-0.16-0.12-0.32-0.24-0.48-0.36c-0.1-0.08-0.14-0.18-0.07-0.3
		c0.07-0.12,0.15-0.23,0.23-0.34c0.58-0.74,0.98-1.56,1.19-2.47c0.18-0.78,0.22-1.58,0.14-2.38c-0.11-1.2-0.39-2.36-0.7-3.51
		c-0.08-0.31-0.21-0.61-0.32-0.92c-0.04-0.11-0.08-0.21-0.11-0.32c-0.04-0.18,0-0.27,0.17-0.37c0.08-0.05,0.17-0.1,0.25-0.16
		c0.21-0.16,0.27-0.38,0.21-0.63c-0.02-0.08-0.05-0.17-0.08-0.25c-0.14-0.35-0.28-0.69-0.43-1.03c-0.07-0.18-0.11-0.35-0.05-0.53
		c0.09-0.03,0.13,0.03,0.16,0.08c0.4,0.44,0.69,0.95,0.86,1.52c0.16,0.51,0.3,1.03,0.42,1.55c0.19,0.75,0.34,1.51,0.44,2.27
		c0.04,0.28,0.08,0.57,0.09,0.85c0.04,0.67,0.07,1.34,0.08,2.02c0.01,0.36-0.03,0.72-0.04,1.08c-0.01,0.47-0.02,0.95-0.03,1.42
		c-0.01,0.2-0.03,0.4-0.05,0.59c-0.04,0.36-0.19,0.67-0.43,0.94c-0.13,0.15-0.27,0.3-0.4,0.45c-0.21,0.24-0.43,0.49-0.64,0.73
		C26.84,37.37,26.78,37.43,26.69,37.51z"/>
	<path d="M14.44,31.72c-0.41-0.14-0.45-0.19-0.46-0.59c0-0.42,0.01-0.85,0-1.27c-0.03-0.73-0.17-1.43-0.42-2.12
		c-0.11-0.31-0.24-0.6-0.5-0.82c-0.16-0.14-0.25-0.31-0.2-0.53c0.01-0.02,0.02-0.04,0.05-0.09c0.43-0.07,0.87-0.09,1.3,0.09
		c0.56,0.23,0.87,0.68,1.03,1.25c0.13,0.47,0.05,0.91-0.15,1.35c-0.04,0.09-0.09,0.18-0.14,0.26c-0.37,0.59-0.5,1.24-0.51,1.93
		c0,0.09,0.01,0.17,0.01,0.26c0.01,0.05,0.02,0.09,0.04,0.17c0.1-0.03,0.19-0.06,0.28-0.09c0.18-0.04,0.28,0.03,0.32,0.22
		c0.01,0.07,0.01,0.15,0.02,0.22c0.01,0.27,0.09,0.51,0.24,0.74c0.1,0.15,0.19,0.29,0.29,0.43c0.33,0.46,0.41,0.98,0.37,1.53
		c-0.05,0.78-0.42,1.37-1.06,1.8c-0.56,0.38-1.04,0.86-1.55,1.29c-0.11,0.09-0.18,0.2-0.2,0.35c-0.01,0.05-0.03,0.1-0.04,0.14
		c-0.03,0.1-0.06,0.2-0.19,0.2c-0.12,0.01-0.25-0.1-0.26-0.22c-0.01-0.12,0-0.25,0.03-0.37c0.1-0.4,0.27-0.78,0.5-1.12
		c0.13-0.19,0.27-0.35,0.41-0.53c0.12-0.15,0.24-0.29,0.34-0.44c0.19-0.3,0.29-0.63,0.29-0.99c0-0.34,0-0.67,0-1.01
		c-0.01-0.6,0.02-1.2,0.12-1.79C14.43,31.89,14.43,31.81,14.44,31.72z"/>
	<path d="M11.4,36.15c0.14,0.01,0.24,0.06,0.27,0.15c0.03,0.09,0.05,0.2,0.04,0.29c-0.06,0.41-0.18,0.81-0.38,1.17
		c-0.68,1.24-1.68,2.12-3.02,2.61c-0.23,0.08-0.48,0.14-0.72,0.18c-0.34,0.06-0.67,0.02-0.99-0.11c-0.82-0.33-1.49-0.85-2.01-1.57
		c-0.06-0.08-0.12-0.17-0.15-0.26c-0.14-0.33-0.28-0.67-0.4-1.01c-0.1-0.28-0.11-0.56,0.03-0.82c0.1-0.04,0.13,0.02,0.17,0.06
		c0.13,0.15,0.26,0.3,0.39,0.45c0.14,0.16,0.29,0.31,0.45,0.45c0.39,0.36,0.86,0.54,1.39,0.57c0.8,0.04,1.56-0.1,2.32-0.34
		c0.54-0.17,1.05-0.4,1.52-0.71C10.75,36.98,11.13,36.63,11.4,36.15z"/>
	<path d="M13.96,10.03c0.01,0,0.03-0.01,0.04-0.01c0.18-0.19,0.37-0.37,0.55-0.56c0.3-0.33,0.64-0.59,1.06-0.75
		c0.6-0.22,1.15-0.14,1.65,0.25c0.1,0.08,0.19,0.16,0.28,0.25c0.13,0.12,0.24,0.25,0.37,0.37c0.27,0.25,0.59,0.37,0.96,0.26
		c0.04-0.01,0.07-0.02,0.11-0.02c0.09-0.01,0.17,0.09,0.14,0.17c-0.04,0.1-0.08,0.21-0.14,0.3c-0.15,0.25-0.34,0.46-0.56,0.64
		c-0.8,0.67-1.72,1.03-2.78,1.02c-0.15,0-0.3-0.02-0.44-0.05c-0.39-0.07-0.77-0.05-1.14,0.09c-0.26,0.1-0.51,0.21-0.76,0.31
		c-0.13,0.05-0.25,0.11-0.37,0.16c-0.09-0.06-0.04-0.12-0.01-0.17c0.15-0.27,0.3-0.55,0.45-0.82c0.14-0.26,0.3-0.52,0.43-0.79
		C13.89,10.5,13.99,10.28,13.96,10.03z"/>
	<path d="M12.36,24.51c0.12,0.01,0.13-0.08,0.18-0.14c0.09-0.1,0.17-0.22,0.26-0.32c0.25-0.25,0.73-0.16,0.84,0.23
		c0.01,0.05,0.03,0.1,0.03,0.15c0.01,0.37,0.03,0.75,0.02,1.12c-0.01,0.24-0.12,0.33-0.36,0.33c-0.16,0-0.32-0.04-0.48-0.05
		c-0.14-0.02-0.27-0.04-0.41-0.05c-0.19-0.01-0.36-0.08-0.53-0.16c-0.65-0.32-1.33-0.48-2.06-0.47c-1.07,0.02-2.02,0.38-2.85,1.06
		c-0.04,0.03-0.07,0.07-0.11,0.1c-0.13,0.11-0.2,0.12-0.3,0.06c-0.12-0.07-0.18-0.17-0.15-0.31c0.08-0.39,0.19-0.77,0.43-1.11
		c0.22-0.31,0.47-0.58,0.78-0.8c0.89-0.64,1.87-0.98,2.98-0.92c0.25,0.01,0.5,0.01,0.75,0.03c0.51,0.04,0.7,0.19,0.86,0.68
		C12.27,24.14,12.31,24.33,12.36,24.51z"/>
	<path d="M17.12,17.76c-0.06,0.12-0.12,0.23-0.18,0.34c-0.29,0.53-0.29,1.05,0.03,1.56c0.09,0.15,0.19,0.29,0.29,0.43
		c0.21,0.29,0.44,0.57,0.65,0.87c0.17,0.24,0.34,0.49,0.48,0.76c0.38,0.71,0.38,1.43,0.03,2.15c-0.14,0.3-0.37,0.53-0.61,0.75
		c-0.2,0.18-0.49,0.08-0.56-0.18c-0.01-0.05,0-0.13,0.03-0.17c0.05-0.07,0.12-0.12,0.19-0.17c0.18-0.13,0.28-0.31,0.34-0.52
		c0.06-0.21,0.01-0.37-0.16-0.49c-0.1-0.07-0.22-0.12-0.33-0.17c-0.31-0.13-0.63-0.25-0.94-0.38c-1-0.42-1.49-1.2-1.63-2.24
		c-0.02-0.12,0.01-0.25,0.03-0.37c0.13-0.67,0.44-1.24,0.97-1.68c0.27-0.23,0.59-0.38,0.93-0.46C16.82,17.74,16.96,17.7,17.12,17.76
		z"/>
	<path d="M22.05,10.25c0.09,0.03,0.18,0.06,0.28,0c0.24-0.12,0.49-0.17,0.76-0.17c0.31,0,0.53,0.14,0.66,0.41
		c0.08,0.18,0.15,0.37,0.17,0.57c0.09,0.63,0.46,1.05,1.03,1.27c0.27,0.1,0.47,0.26,0.64,0.48c0.07,0.09,0.15,0.17,0.21,0.26
		c0.02,0.03,0.03,0.1,0.02,0.13c-0.03,0.06-0.09,0.08-0.16,0.06c-0.06-0.02-0.12-0.04-0.18-0.06c-0.84-0.36-1.72-0.5-2.62-0.49
		c-1.29,0.01-2.59,0.04-3.88,0.05c-0.12,0-0.25,0-0.37-0.02c-0.15-0.03-0.21-0.1-0.21-0.26c0-0.07,0-0.15,0-0.22l-0.01,0.01
		c0.12-0.02,0.24-0.03,0.36-0.06c0.43-0.11,0.84-0.3,1.23-0.51c0.56-0.31,1.08-0.7,1.67-0.97c0.2-0.09,0.37-0.25,0.42-0.49
		L22.05,10.25z"/>
	<path d="M48.45,13.45c0.06-0.1-0.01-0.16-0.03-0.22c-0.08-0.24-0.17-0.47-0.22-0.71c-0.17-0.8,0.06-1.5,0.57-2.12
		c0.33-0.4,0.76-0.68,1.25-0.85c0.53-0.19,1.03-0.12,1.51,0.17c0.3,0.18,0.55,0.43,0.76,0.71c0.01,0.02,0.01,0.05,0.01,0.09
		c-0.08,0.05-0.18,0.03-0.28,0.04c-0.1,0.01-0.2,0-0.3,0c-0.14,0-0.27-0.02-0.41-0.02c-0.4,0.01-0.72,0.19-0.94,0.52
		c-0.1,0.15-0.18,0.33-0.25,0.5c-0.08,0.18-0.13,0.38-0.19,0.57c-0.17,0.53-0.45,1-0.77,1.45c-0.04,0.06-0.11,0.11-0.18,0.12
		c-0.4,0.08-0.7,0.31-0.99,0.57c-0.18,0.17-0.37,0.34-0.57,0.48c-0.53,0.39-1.28,0.15-1.51-0.46c-0.06-0.16-0.03-0.29,0.08-0.41
		c0.22-0.23,0.48-0.26,0.73-0.08c0.06,0.04,0.12,0.1,0.18,0.14c0.14,0.09,0.25,0.07,0.35-0.08c0.07-0.1,0.12-0.22,0.18-0.33
		c0.08-0.14,0.19-0.24,0.35-0.25c0.12-0.01,0.25,0.02,0.37,0.05C48.25,13.35,48.35,13.41,48.45,13.45z"/>
	<path d="M28.03,41.6c-0.07,0.2-0.18,0.31-0.37,0.36c-0.5,0.11-0.92,0.36-1.31,0.68c-0.25,0.21-0.49,0.43-0.73,0.64
		c-0.22,0.19-0.44,0.37-0.66,0.55c-0.41,0.32-0.55,0.75-0.52,1.25c0.01,0.21,0.12,0.35,0.31,0.42c0.12,0.04,0.24,0.07,0.36,0.11
		c0.11,0.04,0.18,0.13,0.18,0.26c0,0.17-0.08,0.25-0.24,0.27c-0.86,0.08-1.6-0.46-1.79-1.31c-0.12-0.53-0.14-1.06,0-1.59
		c0.1-0.37,0.28-0.69,0.56-0.95c0.3-0.28,0.62-0.53,0.98-0.75c0.63-0.38,1.29-0.47,2-0.22c0.33,0.11,0.68,0.16,1.02,0.23
		C27.88,41.56,27.95,41.57,28.03,41.6z"/>
	<path d="M18.4,12.27c-0.17-0.01-0.32,0.05-0.47,0.09c-0.13,0.04-0.27,0.07-0.4,0.08c-0.14,0.01-0.27-0.03-0.36-0.12
		c-0.02-0.11,0.06-0.15,0.12-0.19c0.36-0.29,0.72-0.58,1.08-0.87c0.78-0.62,1.5-1.31,2.2-2.02c0.33-0.34,0.67-0.67,1.01-1
		c0.07-0.07,0.14-0.13,0.24-0.16c0.1-0.04,0.19-0.12,0.28-0.18c0.41-0.31,0.82-0.3,1.26-0.04c0.22,0.13,0.35,0.33,0.35,0.58
		c0,0.26-0.02,0.52-0.06,0.78c-0.05,0.28-0.23,0.46-0.51,0.54c-0.07,0.02-0.14,0.05-0.22,0.05c-0.36,0.02-0.64,0.18-0.85,0.47
		c0,0,0.02-0.01,0.02-0.01c-0.12,0.04-0.24,0.07-0.35,0.12c-0.39,0.19-0.78,0.39-1.16,0.6c-0.4,0.22-0.79,0.46-1.19,0.69
		c-0.23,0.13-0.45,0.27-0.73,0.26c-0.14,0-0.22,0.09-0.23,0.24c0,0.04-0.02,0.07-0.02,0.11L18.4,12.27z"/>
	<path d="M45.46,11.06c0.01,0.16,0.02,0.32,0.04,0.48c0.03,0.28,0.02,0.55-0.08,0.81c-0.12,0.34-0.24,0.68-0.37,1.02
		c-0.06,0.13-0.15,0.26-0.25,0.36c-0.17,0.16-0.39,0.22-0.62,0.13c-0.08-0.03-0.17-0.06-0.24-0.1c-0.24-0.15-0.5-0.21-0.78-0.23
		c-0.18-0.01-0.37-0.06-0.54-0.13c-0.27-0.1-0.42-0.31-0.42-0.6c0-0.12,0-0.25,0.03-0.37c0.1-0.41,0.23-0.81,0.42-1.19
		c0.29-0.57,0.74-0.93,1.36-1.07c0.28-0.06,0.56-0.11,0.84-0.17c0.06-0.01,0.12-0.02,0.18-0.02c0.21,0,0.34,0.09,0.37,0.3
		c0.04,0.26,0.05,0.52,0.07,0.78C45.47,11.06,45.47,11.06,45.46,11.06z"/>
	<path d="M3.36,30.97c-0.18-0.21-0.25-0.41-0.33-0.61c-0.19-0.48-0.23-0.99-0.27-1.5c-0.03-0.44-0.05-0.87-0.15-1.3
		c-0.04-0.21,0.01-0.4,0.11-0.58c0.17-0.31,0.41-0.54,0.73-0.67c0.28-0.11,0.56-0.21,0.85-0.3c0.45-0.13,0.87-0.06,1.24,0.23
		c0.15,0.11,0.29,0.24,0.41,0.38c0.17,0.2,0.17,0.4,0.01,0.62c-0.08,0.11-0.18,0.21-0.28,0.3c-0.57,0.52-1.03,1.12-1.41,1.78
		c-0.24,0.42-0.47,0.85-0.7,1.28C3.51,30.71,3.45,30.82,3.36,30.97z"/>
	<path d="M3.77,24.19c-0.08-0.36,0.06-0.59,0.24-0.8c0.14-0.16,0.32-0.28,0.51-0.37c0.73-0.34,1.49-0.39,2.26-0.16
		c0.19,0.06,0.37,0.14,0.52,0.29c0.11,0.11,0.12,0.21,0.03,0.33c-0.03,0.04-0.06,0.08-0.1,0.11c-0.37,0.38-0.74,0.77-1.12,1.15
		c-0.1,0.11-0.22,0.2-0.33,0.31c-0.35,0.34-0.78,0.54-1.25,0.61c-0.25,0.04-0.49,0.09-0.74,0.11c-0.18,0.02-0.37,0.01-0.56-0.02
		c-0.12-0.02-0.24-0.07-0.35-0.13c-0.12-0.06-0.18-0.18-0.14-0.32c0.07-0.23,0.06-0.47,0.03-0.7c0-0.02,0-0.05,0-0.07
		c0.02-0.34,0.16-0.46,0.51-0.42C3.43,24.11,3.57,24.15,3.77,24.19z"/>
	<path d="M11.23,47.24c0.01-0.12,0.01-0.2,0.02-0.29c0.1-0.73,0.05-1.44-0.22-2.13c-0.15-0.4-0.36-0.76-0.61-1.11
		c-0.31-0.44-0.68-0.83-1.05-1.21c-0.21-0.21-0.43-0.41-0.65-0.62c-0.11-0.11-0.23-0.19-0.38-0.21c-0.11-0.02-0.22-0.05-0.32-0.09
		c-0.09-0.04-0.18-0.09-0.25-0.16c-0.16-0.17-0.11-0.43,0.11-0.53c0.06-0.03,0.12-0.04,0.18-0.05c0.17-0.05,0.33-0.09,0.46-0.23
		c0.04-0.04,0.1-0.07,0.16-0.1c0.18-0.09,0.36-0.17,0.53-0.26c0.15-0.07,0.27-0.04,0.34,0.11c0.01,0.02,0.02,0.05,0.03,0.07
		c0.18,0.47,0.46,0.88,0.77,1.27c0.26,0.32,0.52,0.64,0.76,0.97c0.31,0.42,0.52,0.88,0.6,1.39c0.04,0.27,0.07,0.54,0.08,0.82
		c0.01,0.39-0.02,0.77-0.02,1.16c0,0.21-0.01,0.42,0.01,0.63c0.01,0.19-0.06,0.31-0.21,0.4C11.46,47.13,11.36,47.18,11.23,47.24z"/>
	<path d="M33.86,37.39c0.04-0.14,0.13-0.19,0.26-0.18c0.07,0.01,0.14,0.04,0.22,0.05c0.36,0.07,0.64-0.05,0.83-0.36
		c0.07-0.12,0.13-0.24,0.19-0.37c0.04-0.09,0.08-0.18,0.11-0.28c0.06-0.16,0.16-0.28,0.33-0.32c0.08-0.02,0.16-0.06,0.24-0.11
		c0.11-0.08,0.18-0.19,0.13-0.32c-0.1-0.25-0.2-0.51-0.33-0.75c-0.1-0.19-0.3-0.22-0.49-0.15c-0.12,0.04-0.23,0.1-0.34,0.16
		c-0.16,0.08-0.33,0.09-0.48,0.03c-0.04-0.1,0.01-0.14,0.06-0.18c0.16-0.16,0.37-0.26,0.57-0.35c0.25-0.11,0.51-0.2,0.76-0.32
		c0.32-0.15,0.55,0.11,0.54,0.35c0,0.07-0.01,0.15-0.02,0.22c-0.07,0.31,0,0.59,0.14,0.87c0.04,0.09,0.1,0.17,0.15,0.26
		c0.04,0.07,0.1,0.15,0.14,0.22c0.36,0.63,0.33,1.14-0.16,1.68c-0.23,0.26-0.35,0.54-0.4,0.86c-0.03,0.16-0.06,0.31-0.09,0.46
		c-0.11,0.04-0.17-0.01-0.21-0.07c-0.04-0.09-0.07-0.18-0.1-0.28c-0.11-0.01-0.09,0.08-0.12,0.15c-0.07,0.16-0.14,0.19-0.28,0.11
		c-0.1-0.06-0.19-0.12-0.27-0.2c-0.18-0.16-0.35-0.32-0.52-0.49c-0.22-0.22-0.45-0.43-0.72-0.59
		C33.92,37.46,33.89,37.42,33.86,37.39z"/>
	<path d="M28.65,41.58c0.1-0.07,0.2-0.07,0.3-0.05c0.08,0.02,0.14,0.07,0.14,0.15c0,0.45,0.04,0.89-0.05,1.34
		c-0.15,0.79-0.73,1.56-1.95,1.53c-0.17-0.01-0.35-0.02-0.52-0.02c-0.32-0.01-0.59,0.09-0.79,0.35c-0.04,0.05-0.08,0.09-0.14,0.12
		c-0.09,0.06-0.19,0.04-0.28-0.02c-0.08-0.05-0.11-0.13-0.1-0.23c0-0.05,0.01-0.1,0.03-0.15c0.18-0.43,0.41-0.82,0.79-1.12
		c0.26-0.2,0.56-0.33,0.88-0.38c0.15-0.02,0.3-0.04,0.44-0.07c0.71-0.15,1.09-0.58,1.19-1.3C28.61,41.69,28.64,41.63,28.65,41.58z"
		/>
	<path d="M30.5,52.52c-0.14,0.01-0.21,0.02-0.28,0.02c-0.12,0-0.25-0.01-0.37-0.03c-0.19-0.04-0.39-0.1-0.58-0.14
		c-0.21-0.05-0.41-0.1-0.62-0.12c-0.37-0.04-0.7-0.18-0.97-0.43c-0.52-0.47-0.82-1.06-0.82-1.77c0-0.36,0-0.72-0.01-1.08
		c-0.01-0.44-0.09-0.87-0.25-1.27c-0.03-0.08-0.06-0.17-0.06-0.25c-0.01-0.15,0.16-0.24,0.29-0.16c0.11,0.06,0.14,0.16,0.18,0.27
		c0.11,0.37,0.16,0.75,0.22,1.14c0.05,0.4,0.15,0.78,0.3,1.15c0.33,0.83,0.91,1.43,1.74,1.74c0.37,0.14,0.69,0.34,0.94,0.65
		C30.28,52.31,30.38,52.39,30.5,52.52z"/>
	<path d="M12.59,42.81c0,0.53-0.01,1.08-0.01,1.63c0,0.07-0.01,0.15-0.02,0.22c-0.02,0.15-0.11,0.21-0.26,0.2
		c-0.12-0.01-0.18-0.07-0.19-0.18c-0.01-0.11,0-0.22-0.01-0.34c-0.04-0.52-0.2-1-0.47-1.45c-0.15-0.26-0.32-0.5-0.5-0.75
		c-0.18-0.25-0.37-0.5-0.56-0.75c-0.21-0.28-0.41-0.57-0.52-0.91c-0.03-0.11-0.11-0.2-0.15-0.3c-0.07-0.16,0.08-0.4,0.27-0.4
		c0.04,0,0.1,0.03,0.12,0.07c0.23,0.39,0.59,0.64,0.96,0.87c0.19,0.12,0.37,0.25,0.55,0.39C12.37,41.53,12.65,42.08,12.59,42.81z"/>
	<path d="M41.26,58.64c0.09-0.06,0.19-0.11,0.28-0.17c0.56-0.33,1.02-0.74,1.37-1.29c0.15-0.24,0.32-0.47,0.42-0.74
		c0.16-0.41,0.51-0.62,0.93-0.73c0.08-0.02,0.17-0.03,0.26-0.04c0.14-0.02,0.27-0.04,0.38-0.14c0.03-0.02,0.08,0,0.16,0
		c-0.07,0.23-0.25,0.34-0.36,0.5c-0.12,0.17-0.24,0.35-0.36,0.52c-0.11,0.17-0.2,0.34-0.31,0.51c-0.1,0.17-0.21,0.33-0.33,0.51
		c0.11,0.11,0.2,0.21,0.29,0.31c0.11,0.12,0.11,0.22,0,0.33c-0.31,0.3-0.66,0.53-1.09,0.6C42.35,58.9,41.81,58.8,41.26,58.64z"/>
	<path d="M21.14,20.37c1.78-0.01,3.34,0.6,4.72,1.72c0.3,0.24,0.58,0.51,0.86,0.77c0.09,0.08,0.16,0.19,0.22,0.3
		c0.06,0.12,0.01,0.25-0.1,0.32c-0.08,0.05-0.17,0.04-0.24-0.03c-0.01-0.01-0.02-0.02-0.03-0.03c-0.38-0.56-0.95-0.91-1.48-1.3
		c-0.49-0.35-1.02-0.63-1.59-0.82c-0.52-0.18-1.06-0.28-1.61-0.28c-0.14,0-0.27-0.02-0.41-0.04c-0.26-0.05-0.51-0.13-0.77-0.11
		c-0.15,0.01-0.26-0.06-0.32-0.21c-0.05-0.15,0.03-0.28,0.19-0.28C20.77,20.36,20.95,20.37,21.14,20.37z"/>
	<path d="M28.96,38.63c-0.3-0.36-0.68-0.55-1.06-0.74c-0.13-0.06-0.27-0.14-0.4-0.21c-0.03-0.02-0.06-0.05-0.09-0.07
		c-0.01-0.15,0.04-0.28,0.09-0.4c0.06-0.14,0.14-0.2,0.29-0.18c0.06,0.01,0.12,0.02,0.18,0.05c0.25,0.12,0.53,0.15,0.8,0.14
		c0.35-0.01,0.7,0.03,1.03,0.15c0.26,0.1,0.52,0.03,0.76-0.07c0.11-0.05,0.22-0.1,0.36-0.16c0.02,0.13-0.04,0.21-0.09,0.29
		c-0.11,0.18-0.15,0.36-0.02,0.56c0.1,0.15,0.06,0.25-0.1,0.34c-0.16,0.1-0.34,0.17-0.53,0.16c-0.16-0.01-0.32-0.01-0.48-0.03
		C29.45,38.44,29.2,38.45,28.96,38.63z"/>
	<path d="M51.23,33.71c-0.29-0.22-0.58-0.42-0.84-0.64c-0.38-0.33-0.63-0.74-0.68-1.25c-0.01-0.09-0.02-0.18,0-0.26
		c0.08-0.38,0-0.74-0.07-1.11c-0.04-0.21-0.04-0.42-0.06-0.63c0-0.04,0.02-0.09,0.02-0.13c0.1-0.03,0.13,0.04,0.16,0.08
		c0.26,0.29,0.48,0.6,0.65,0.95c0.18,0.37,0.35,0.74,0.5,1.12c0.18,0.45,0.33,0.91,0.49,1.37C51.52,33.46,51.51,33.47,51.23,33.71z"
		/>
	<path d="M14.13,40.19c-0.31,1.26-0.51,2.51-0.45,3.79c0.06,1.27,0.37,2.48,0.92,3.67c-0.09,0-0.13,0-0.17-0.01
		c-0.26-0.11-0.46-0.29-0.63-0.52c-0.2-0.28-0.33-0.59-0.43-0.91c-0.17-0.59-0.24-1.2-0.23-1.81c0.01-1.35,0.28-2.65,0.82-3.89
		C14.02,40.41,14.08,40.31,14.13,40.19z"/>
	<path d="M7.62,35.5c-0.03,0.02-0.05,0.05-0.08,0.07c-0.56,0.2-1.12,0.32-1.72,0.23c-0.63-0.08-1.12-0.39-1.49-0.89
		c-0.22-0.29-0.37-0.62-0.48-0.96c-0.09-0.3-0.18-0.6-0.26-0.89c-0.03-0.12,0.01-0.21,0.1-0.25c0.11-0.05,0.23-0.02,0.29,0.08
		c0.12,0.22,0.24,0.44,0.32,0.67c0.14,0.39,0.39,0.69,0.71,0.94c0.52,0.41,1.12,0.63,1.76,0.76c0.19,0.04,0.39,0.06,0.59,0.07
		C7.48,35.33,7.58,35.35,7.62,35.5z"/>
	<path d="M38.14,32.81c0.04,0.01,0.09,0.02,0.13,0.05c0.49,0.27,1.02,0.34,1.56,0.27c0.22-0.03,0.36,0.04,0.46,0.22
		c0.04,0.08,0.09,0.15,0.14,0.22c0.12,0.2,0.23,0.42,0.36,0.61c0.13,0.18,0.28,0.35,0.43,0.53c-0.04,0.05-0.08,0.11-0.13,0.17
		c-0.12-0.04-0.23-0.06-0.33-0.1c-0.47-0.16-0.94-0.33-1.41-0.5c-0.27-0.1-0.53-0.22-0.76-0.4c-0.14-0.11-0.31-0.16-0.48-0.2
		c-0.2-0.05-0.26-0.14-0.27-0.35C37.85,33.11,37.92,32.97,38.14,32.81z"/>
	<path d="M49.78,19.34c-0.03,0.18-0.04,0.37-0.1,0.55c-0.09,0.27-0.21,0.53-0.32,0.79c-0.06,0.14-0.18,0.19-0.3,0.17
		c-0.13-0.03-0.22-0.11-0.26-0.24c-0.02-0.06-0.02-0.12-0.02-0.18c0-0.22,0-0.44-0.05-0.67c-0.03-0.11,0.01-0.25,0.05-0.36
		c0.15-0.38,0.11-0.75-0.03-1.13c-0.17-0.45-0.44-0.83-0.79-1.16c-0.08-0.08-0.17-0.15-0.24-0.23c-0.08-0.09-0.06-0.22,0.06-0.28
		c0.11-0.06,0.21-0.06,0.31,0.01c0.03,0.02,0.06,0.05,0.08,0.08c0.33,0.39,0.67,0.77,0.99,1.17c0.16,0.2,0.3,0.43,0.42,0.66
		C49.71,18.76,49.78,19.04,49.78,19.34z"/>
	<path d="M50.01,22.62c-0.14-0.01-0.27-0.01-0.41-0.02c-0.17-0.02-0.27-0.12-0.32-0.27c-0.07-0.23-0.07-0.47,0.03-0.69
		c0.04-0.08,0.11-0.16,0.19-0.22c0.07-0.05,0.16-0.08,0.24-0.09c0.47-0.06,0.94-0.11,1.41-0.15c0.13-0.01,0.27,0,0.41,0.03
		c0.19,0.04,0.25,0.2,0.12,0.33c-0.27,0.29-0.55,0.58-0.83,0.85c-0.18,0.17-0.4,0.24-0.65,0.23C50.13,22.62,50.07,22.62,50.01,22.62
		C50.01,22.62,50.01,22.62,50.01,22.62z"/>
	<path d="M17.68,25.77c0.05,0.1,0.1,0.18,0.15,0.27c0.09,0.17,0.22,0.26,0.43,0.23c0.07-0.01,0.15,0,0.21,0
		c0.12,0.07,0.13,0.19,0.18,0.29c0.09,0.22,0.17,0.44,0.29,0.65c0.27,0.48,0.68,0.78,1.22,0.92c0.06,0.02,0.12,0.02,0.18,0.04
		c0.19,0.05,0.22,0.18,0.09,0.34c-0.08,0.09-0.17,0.14-0.29,0.16c-0.43,0.08-0.75,0.32-0.94,0.72c-0.03,0.06-0.07,0.11-0.11,0.15
		c-0.06,0.06-0.17,0.07-0.24,0.03c-0.09-0.05-0.12-0.13-0.11-0.22c0.01-0.07,0.05-0.14,0.09-0.2c0.27-0.4,0.28-0.82,0.09-1.24
		c-0.14-0.32-0.29-0.63-0.45-0.94c-0.08-0.16-0.17-0.18-0.34-0.11c-0.09,0.04-0.17,0.13-0.27,0.08c-0.11-0.05-0.15-0.16-0.19-0.27
		C17.55,26.35,17.55,26.07,17.68,25.77z"/>
	<path d="M12.15,38.31c0.02,0.04,0.05,0.07,0.06,0.11c0.07,0.37,0.24,0.7,0.42,1.03c0.08,0.14,0.16,0.28,0.21,0.44
		c0.06,0.17,0.12,0.36,0.14,0.54c0.03,0.22,0.05,0.45,0.06,0.67c0.01,0.28-0.15,0.38-0.41,0.28c-0.19-0.08-0.34-0.21-0.47-0.36
		c-0.18-0.23-0.31-0.48-0.38-0.76c-0.12-0.47-0.13-0.94,0.03-1.4C11.88,38.64,11.97,38.45,12.15,38.31z"/>
	<path d="M22.25,28.91c0.54-0.33,1.17-0.26,1.76-0.43c0.05,0.07,0.1,0.13,0.14,0.19c0.14,0.24,0.35,0.38,0.61,0.45
		c0.19,0.05,0.39,0.09,0.58,0.13c0.12,0.03,0.24,0.05,0.36,0.09c0.13,0.04,0.24,0.13,0.32,0.25c0.09,0.14,0.08,0.28-0.02,0.41
		c-0.06,0.08-0.16,0.09-0.23,0.03c-0.06-0.05-0.11-0.1-0.16-0.16c-0.12-0.16-0.27-0.2-0.46-0.17c-0.19,0.03-0.37,0.06-0.53-0.04
		c-0.03,0.01-0.04,0.01-0.05,0.02c-0.34,0.21-0.4,0.2-0.67-0.07c-0.11-0.12-0.22-0.23-0.34-0.34c-0.14-0.13-0.31-0.18-0.48-0.07
		c-0.18,0.11-0.32,0.08-0.47-0.06C22.51,29.05,22.39,28.99,22.25,28.91z"/>
	<path d="M38.75,35.34c0.37,0.04,0.65,0.17,0.91,0.35c0.23,0.16,0.42,0.35,0.57,0.58c0.26,0.41,0.5,0.83,0.75,1.24
		c0.02,0.03,0.03,0.07,0.04,0.1c0.04,0.13,0.03,0.25-0.07,0.34c-0.09,0.08-0.27,0.09-0.38,0.01c-0.06-0.04-0.12-0.09-0.16-0.15
		c-0.33-0.41-0.66-0.81-0.98-1.22C39.15,36.23,38.92,35.84,38.75,35.34z"/>
	<path d="M38.3,36.59c0.16,0,0.3,0.06,0.38,0.22c0.1,0.22,0.25,0.39,0.42,0.57c0.18,0.18,0.29,0.4,0.37,0.64
		c0.09,0.3,0.17,0.6,0.24,0.9c0.02,0.07,0.01,0.15,0,0.22c-0.01,0.08-0.07,0.13-0.15,0.14c-0.14,0.02-0.28-0.01-0.37-0.12
		c-0.17-0.2-0.34-0.4-0.48-0.62c-0.13-0.21-0.23-0.44-0.33-0.67c-0.13-0.31-0.25-0.63-0.36-0.94C37.94,36.67,38,36.6,38.3,36.59z"/>
	<path d="M8.17,43.75c-0.07-0.04-0.14-0.06-0.19-0.1c-0.3-0.23-0.56-0.5-0.77-0.81c-0.16-0.23-0.31-0.48-0.47-0.72
		c-0.24-0.35-0.48-0.7-0.72-1.05c-0.02-0.03-0.05-0.06-0.07-0.09c-0.07-0.11-0.02-0.22,0.11-0.25c0.1-0.03,0.2-0.02,0.29,0.03
		c0.15,0.09,0.3,0.18,0.43,0.3c0.35,0.32,0.63,0.7,0.88,1.11c0.22,0.38,0.42,0.76,0.52,1.19C8.2,43.49,8.23,43.61,8.17,43.75z"/>
	<path d="M49.78,20.78c0.1-0.22,0.19-0.45,0.3-0.67c0.05-0.1,0.11-0.2,0.17-0.28c0.2-0.25,0.43-0.3,0.72-0.17
		c0.08,0.04,0.16,0.07,0.23,0.13c0.27,0.22,0.53,0.44,0.79,0.68c0.16,0.15,0.27,0.35,0.32,0.57c-0.1,0.07-0.15-0.01-0.21-0.03
		c-0.22-0.11-0.44-0.22-0.69-0.28c-0.33-0.08-0.64-0.03-0.93,0.15c-0.03,0.02-0.06,0.05-0.09,0.06c-0.08,0.04-0.15,0.08-0.23,0.1
		c-0.06,0.01-0.12-0.01-0.18-0.03C49.93,20.98,49.88,20.93,49.78,20.78z"/>
	<path d="M6.63,29.78c-0.29-0.04-0.51,0.1-0.66,0.35c-0.07,0.12-0.12,0.24-0.18,0.37c-0.11,0.21-0.37,0.28-0.56,0.12
		c-0.05-0.04-0.09-0.12-0.09-0.19c0-0.08,0.02-0.17,0.05-0.25c0.24-0.59,0.65-1.02,1.21-1.31c0.44-0.23,0.69,0.03,0.88,0.35
		c0.02,0.03,0.02,0.07,0.02,0.11c-0.03,0.26-0.26,0.47-0.54,0.46C6.72,29.79,6.69,29.78,6.63,29.78z"/>
	<path d="M31.66,47.31c0.13-0.08,0.23-0.14,0.33-0.2c-0.01-0.18-0.1-0.3-0.19-0.42c-0.04-0.05-0.09-0.09-0.12-0.14
		c-0.05-0.07-0.04-0.17,0.04-0.23c0.05-0.04,0.1-0.07,0.16-0.1c0.34-0.19,0.52-0.15,0.7,0.19c0.14,0.24,0.21,0.5,0.19,0.78
		c-0.02,0.28-0.12,0.51-0.39,0.63c-0.23,0.1-0.31,0.26-0.28,0.5c0.02,0.14,0.05,0.3-0.09,0.43c-0.04-0.04-0.08-0.06-0.11-0.1
		c-0.02-0.03-0.04-0.06-0.05-0.1C31.76,48.34,31.64,47.61,31.66,47.31z"/>
	<path d="M43.41,34.68c0.21,0.06,0.36,0.11,0.52,0.14c0.16,0.02,0.32,0.02,0.49,0.02c0.17,0,0.35-0.01,0.52,0.06
		c0.19,0.08,0.28,0.25,0.19,0.42c-0.24,0.46-0.31,0.94-0.31,1.45c0,0.02-0.01,0.05-0.02,0.07c0,0.01-0.02,0.01-0.03,0.02
		c-0.06,0.03-0.09-0.02-0.12-0.06c-0.11-0.19-0.25-0.38-0.33-0.58c-0.17-0.47-0.44-0.86-0.81-1.19c-0.05-0.04-0.1-0.09-0.12-0.14
		C43.38,34.82,43.4,34.76,43.41,34.68z"/>
	<path d="M36.78,42.1c-0.04-0.03-0.08-0.05-0.1-0.07c-0.38-0.55-0.71-1.13-0.95-1.77c-0.15-0.42-0.12-0.48,0.3-0.68
		c0.04-0.02,0.1-0.05,0.14-0.04c0.05,0.01,0.1,0.05,0.16,0.08c0.01,0,0.01,0.02,0.02,0.03c0.08,0.38,0.3,0.71,0.44,1.06
		c0.08,0.19,0.14,0.4,0.17,0.61C36.99,41.59,36.94,41.85,36.78,42.1z"/>
	<path d="M40.46,29.17c-0.08,0.19-0.15,0.35-0.22,0.51c-0.11,0.28-0.18,0.32-0.47,0.28c-0.1-0.01-0.2-0.02-0.3-0.02
		c-0.09-0.01-0.17-0.01-0.26-0.03c-0.2-0.05-0.26-0.14-0.23-0.35c0.03-0.22,0.11-0.43,0.25-0.61c0.23-0.3,0.57-0.35,0.89-0.15
		C40.25,28.88,40.32,28.95,40.46,29.17z"/>
	<path d="M24.12,22.28c1.13,0.46,2.33,2.23,2.18,3.26c-0.12-0.12-0.17-0.26-0.25-0.38c-0.08-0.13-0.15-0.26-0.23-0.39
		c-0.07-0.12-0.14-0.23-0.22-0.35c-0.08-0.13-0.16-0.25-0.25-0.38c-0.08-0.12-0.17-0.25-0.25-0.37c-0.09-0.12-0.17-0.24-0.26-0.36
		c-0.08-0.11-0.16-0.22-0.25-0.33c-0.09-0.12-0.18-0.24-0.28-0.35C24.13,22.4,24.13,22.4,24.12,22.28z"/>
	<path d="M33.64,20.65c0.31-0.49,0.84-0.73,1.35-0.63c0.44,0.08,0.88,0.33,1.14,0.64c-0.3,0.22-0.67,0.28-1.01,0.17
		c-0.08-0.03-0.17-0.06-0.24-0.1c-0.19-0.12-0.39-0.12-0.61-0.07c-0.14,0.04-0.29,0.06-0.44,0.07
		C33.77,20.73,33.71,20.68,33.64,20.65z"/>
	<path d="M43.2,36.28c-0.02,0.07-0.02,0.1-0.03,0.12c-0.14,0.31-0.13,0.35,0.14,0.56c0.06,0.04,0.11,0.1,0.17,0.15
		c0.01,0.01,0.01,0.02,0.02,0.05c-0.04,0.09-0.07,0.19-0.12,0.29c-0.05,0.09-0.17,0.13-0.25,0.06c-0.07-0.05-0.13-0.12-0.18-0.18
		c-0.07-0.1-0.14-0.21-0.2-0.31c-0.2-0.34-0.39-0.7-0.64-1.01c-0.14-0.17-0.1-0.31,0.07-0.45c0.09-0.06,0.17-0.09,0.27-0.03
		C42.74,35.73,43,35.97,43.2,36.28z"/>
	<path d="M32.83,52.22c0.02-0.03,0.04-0.04,0.04-0.05c-0.12-0.29-0.18-0.61-0.34-0.89c-0.11-0.19-0.17-0.39-0.06-0.61
		c0.01-0.02,0.03-0.03,0.06-0.06c0.03,0.02,0.06,0.03,0.08,0.06c0.21,0.4,0.41,0.8,0.55,1.22c0.06,0.18,0.09,0.36,0.07,0.55
		c-0.02,0.11-0.05,0.22-0.11,0.31c-0.11,0.18-0.34,0.35-0.61,0.47c-0.09-0.1-0.09-0.22-0.09-0.35c0-0.26,0.01-0.53-0.16-0.75
		c-0.01-0.01-0.01-0.02-0.01-0.04c0.01-0.05,0.01-0.11,0.03-0.13c0.03-0.03,0.1-0.03,0.13-0.02c0.09,0.05,0.16,0.12,0.24,0.17
		C32.71,52.16,32.78,52.19,32.83,52.22z"/>
	<path d="M42.5,55.92c-0.01,0.04,0,0.08-0.02,0.11c-0.16,0.21-0.31,0.42-0.48,0.62c-0.28,0.32-0.59,0.61-0.93,0.86
		c-0.08,0.06-0.16,0.1-0.25,0.16c-0.02-0.04-0.05-0.06-0.05-0.07c0.03-0.41,0.16-0.78,0.4-1.11c0.3-0.41,0.71-0.61,1.22-0.61
		C42.43,55.87,42.47,55.9,42.5,55.92z"/>
	<path d="M33.03,33.8c-0.19,0.33-0.46,0.5-0.8,0.59c-0.32,0.08-0.62,0.02-0.89-0.15c-0.19-0.12-0.22-0.23-0.14-0.44
		c0.04-0.1,0.09-0.21,0.15-0.3c0.07-0.1,0.2-0.15,0.29-0.08c0.4,0.29,0.86,0.29,1.31,0.35C32.97,33.76,32.98,33.77,33.03,33.8z"/>
	<path d="M40.16,30.73c0.08,0.26,0.02,0.5-0.07,0.73c-0.11,0.28-0.25,0.54-0.29,0.84c-0.02,0.1-0.09,0.14-0.18,0.17
		c-0.32,0.08-0.61-0.19-0.53-0.51c0.06-0.25,0.15-0.5,0.29-0.72c0.1-0.16,0.23-0.29,0.4-0.39C39.89,30.78,40.01,30.71,40.16,30.73z"
		/>
	<path d="M27.81,46.55c-0.2-0.38-0.38-0.72-0.55-1.07c-0.03-0.06-0.06-0.11-0.07-0.17c-0.04-0.12,0-0.22,0.11-0.28
		c0.11-0.06,0.22-0.04,0.3,0.05c0.06,0.07,0.1,0.14,0.14,0.22c0.25,0.53,0.55,1.03,0.95,1.47c0.01,0.01,0.01,0.02,0.01,0.05
		c-0.1,0.11-0.22,0.13-0.36,0.05c-0.06-0.04-0.12-0.09-0.17-0.15C28.07,46.63,27.95,46.56,27.81,46.55z"/>
	<path d="M29.49,31.32c0.32,0.46,0.61,0.87,0.89,1.29c0.1,0.15,0.18,0.32,0.27,0.49c0.02,0.04,0.02,0.09,0.02,0.14
		c-0.28-0.03-0.76-0.2-0.93-0.34c-0.05-0.04-0.1-0.11-0.12-0.18c-0.07-0.26-0.14-0.53-0.19-0.79
		C29.39,31.73,29.38,31.53,29.49,31.32z"/>
	<path d="M45.93,13.25C45.96,13.25,45.95,13.25,45.93,13.25c-0.3,0.01-0.36-0.1-0.28-0.39c0.04-0.13,0.12-0.24,0.23-0.33
		c0.24-0.17,0.51-0.24,0.8-0.26c0.15-0.01,0.22,0.1,0.19,0.25C46.78,12.97,46.42,13.25,45.93,13.25z"/>
	<path d="M38.89,13.53c0.11,0.02,0.22,0.03,0.32,0.07c0.11,0.04,0.16,0.14,0.1,0.24c-0.06,0.1-0.13,0.21-0.22,0.29
		c-0.21,0.17-0.47,0.23-0.73,0.23c-0.15,0-0.22-0.09-0.21-0.24c0.03-0.31,0.24-0.52,0.55-0.56c0.06-0.01,0.12,0,0.19,0
		C38.89,13.55,38.89,13.54,38.89,13.53z"/>
	<path d="M38.26,22.82c0.12,0.1,0.22,0.19,0.31,0.26c0.09,0.07,0.19,0.11,0.28,0.18c0.21,0.15,0.27,0.33,0.2,0.55
		c-0.03,0.1-0.1,0.17-0.19,0.22c-0.08,0.05-0.17,0.04-0.25-0.01C38.21,23.75,38.08,23.34,38.26,22.82z"/>
	<path d="M39.28,56.41c0.19-0.3,0.16-0.69,0.45-0.95c0.19,0.04,0.35,0.12,0.44,0.28c-0.08,0.2-0.15,0.38-0.22,0.56
		C39.84,56.65,39.6,56.7,39.28,56.41z"/>
	<path d="M39.6,20.11c-0.08-0.05-0.15-0.08-0.21-0.13c-0.15-0.12-0.16-0.19-0.06-0.35c0.15-0.24,0.33-0.47,0.59-0.6
		c0.08-0.04,0.17-0.08,0.24-0.02c0.08,0.07,0.06,0.16,0.02,0.24C40.06,19.57,39.89,19.86,39.6,20.11z"/>
	<path d="M47.12,34.85c0.09,0.12,0.16,0.19,0.21,0.27c0.21,0.34,0.33,0.72,0.47,1.09c0.05,0.13-0.02,0.22-0.15,0.23
		c-0.05,0.01-0.1,0-0.15,0c-0.03-0.01-0.07-0.03-0.12-0.06c0.01-0.31-0.13-0.59-0.26-0.87C47.02,35.26,47.03,35.19,47.12,34.85z"/>
	<path d="M46.09,34.91c0.26,0.05,0.38,0.19,0.43,0.37c0.07,0.22,0.11,0.45,0.16,0.68c0.02,0.1-0.08,0.18-0.18,0.16
		c-0.14-0.03-0.26-0.1-0.31-0.24c-0.04-0.11-0.09-0.23-0.1-0.35C46.08,35.34,46.09,35.14,46.09,34.91z"/>
	<path d="M27.37,46.61c0.16,0.02,0.26,0.03,0.39,0.04c0.05,0.17,0.16,0.3,0.29,0.41c0.09,0.08,0.15,0.19,0.21,0.29
		c0.04,0.07-0.01,0.15-0.09,0.17c-0.18,0.05-0.36,0.02-0.48-0.11C27.5,47.21,27.38,46.96,27.37,46.61z"/>
	<path d="M21.14,28.15c0.26,0.01,0.49,0.08,0.66,0.27c0.03,0.04,0.06,0.08,0.09,0.12c0.07,0.12-0.01,0.26-0.15,0.26
		c-0.09,0-0.19-0.03-0.28-0.06c-0.16-0.07-0.31-0.15-0.47-0.22c-0.11-0.05-0.17-0.14-0.15-0.22c0.02-0.08,0.11-0.15,0.23-0.15
		C21.09,28.15,21.12,28.15,21.14,28.15z"/>
	<path d="M38.77,55.33c-0.1,0.2-0.11,0.49-0.38,0.6c-0.05,0.02-0.12,0.02-0.17-0.01c-0.07-0.03-0.11-0.12-0.08-0.19
		c0.09-0.17,0.09-0.35,0.14-0.53c0.03-0.11,0.15-0.18,0.26-0.16C38.66,55.07,38.77,55.18,38.77,55.33z"/>
	<path d="M46.52,29.43c0.07,0.24,0.09,0.45-0.16,0.62c-0.09,0.06-0.13,0.18-0.19,0.27c-0.06,0.08-0.17,0.05-0.21-0.04
		c-0.08-0.16-0.08-0.31,0.01-0.46c0.1-0.17,0.25-0.31,0.43-0.4C46.43,29.41,46.47,29.43,46.52,29.43z"/>
	<path d="M36.17,20.72c0.13,0,0.19-0.02,0.25,0c0.05,0.02,0.11,0.08,0.11,0.12c0,0.05-0.04,0.11-0.09,0.15
		c-0.05,0.04-0.12,0.03-0.16-0.03C36.24,20.91,36.22,20.84,36.17,20.72z"/>
	<path d="M44.16,51.43c-0.06-0.15-0.11-0.26-0.14-0.36C44,51.02,44,50.97,44,50.92c0.01-0.08,0.06-0.14,0.14-0.15
		c0.05-0.01,0.13,0.01,0.17,0.04c0.06,0.05,0.09,0.12,0.13,0.18c0.07,0.09,0.14,0.17,0.27,0.18c0.13-0.08,0.07-0.23,0.12-0.34
		c0.02-0.04,0.07-0.07,0.11-0.08c0.02-0.01,0.07,0.03,0.08,0.06c0.03,0.06,0.04,0.12,0.06,0.18c0.09,0.27,0.03,0.49-0.2,0.66
		c-0.18,0.13-0.36,0.27-0.54,0.4c-0.06,0.04-0.13,0.08-0.2,0.09c-0.14,0.02-0.23,0.08-0.32,0.18c-0.12,0.13-0.25,0.13-0.36-0.05
		c-0.15-0.24-0.16-0.49-0.05-0.75c0.06-0.14,0.14-0.19,0.3-0.17C43.83,51.36,43.97,51.39,44.16,51.43z"/>
</g>
</svg>
